<?xml version="1.0" encoding="UTF-8" standalone="no"?>
<svg xmlns:ffdec="https://www.free-decompiler.com/flash" xmlns:xlink="http://www.w3.org/1999/xlink" ffdec:objectType="shape" height="184.65px" width="529.5px" xmlns="http://www.w3.org/2000/svg">
  <g transform="matrix(1.0, 0.0, 0.0, 1.0, 264.75, 92.3)">
    <path d="M224.4 -45.8 L224.4 -62.55 159.6 -68.1 157.8 -43.4 173.8 -43.9 Q185.45 -37.2 200.45 -31.25 L199.8 -23.25 223.35 -22.1 Q224.2 -34.0 224.4 -45.8 M256.85 -72.1 L264.75 -72.25 264.75 -71.85 263.0 -29.8 Q262.75 -26.75 262.5 -12.6 262.25 1.55 261.65 9.0 L252.85 12.5 252.5 73.5 Q238.95 83.8 224.05 92.35 197.6 88.15 173.8 84.9 L156.25 82.35 140.55 79.85 Q135.45 79.3 129.5 77.6 L129.15 72.45 89.95 70.9 91.05 38.05 Q91.15 34.1 92.9 16.5 L93.85 7.3 94.35 2.3 Q92.25 -4.75 92.8 -19.45 L92.65 -22.7 92.3 -29.05 Q96.55 -31.6 100.9 -34.0 106.0 -36.85 123.85 -43.5 L154.75 -43.4 155.65 -56.7 Q156.15 -63.4 157.0 -70.0 L157.45 -71.35 171.5 -72.2 184.75 -72.9 208.5 -74.5 214.95 -73.95 231.85 -72.7 Q244.35 -71.8 256.85 -72.1 M262.75 -69.6 L227.9 -62.2 227.9 -52.2 227.75 -39.35 227.4 -30.7 226.75 -22.1 252.95 -20.7 252.85 8.65 260.1 5.75 262.75 -69.6 M99.45 -29.25 L99.5 -29.0 196.35 -31.5 Q186.95 -34.9 174.95 -41.55 L124.0 -40.9 Q108.7 -34.7 99.45 -29.25 M257.2 -70.0 Q239.55 -69.55 233.05 -70.05 L208.0 -72.6 Q186.3 -70.3 161.95 -69.95 L217.35 -66.2 229.95 -64.9 Q237.15 -67.35 257.2 -70.0 M197.6 -29.8 L95.5 -27.05 Q93.4 -13.8 98.75 7.7 96.1 4.55 96.15 9.05 96.2 13.5 95.85 16.6 95.55 19.65 94.2 67.05 L128.9 68.1 126.35 -12.15 Q143.65 -18.75 162.85 -23.6 L197.0 -23.25 197.6 -29.8 M157.3 -20.2 Q140.2 -14.5 130.95 -12.15 L139.6 -12.15 160.25 -11.1 174.75 -10.6 181.55 -10.4 194.35 -9.95 208.55 -9.55 229.25 -8.65 249.95 -19.3 163.0 -22.15 161.05 -21.45 157.3 -20.15 157.25 -20.15 157.3 -20.2 M132.05 70.7 L132.1 71.75 132.15 72.55 132.2 73.9 132.2 74.35 222.2 89.25 224.15 57.9 227.45 -5.5 183.35 -7.45 162.0 -8.95 Q144.3 -10.05 129.0 -9.1 130.35 10.95 130.05 15.2 129.7 19.4 130.05 29.9 L131.05 57.9 131.15 59.25 132.0 70.6 132.1 72.55 132.05 70.7 M250.05 -17.25 L230.75 -5.8 227.9 57.9 228.05 57.9 226.0 88.5 235.75 82.25 248.35 73.9 250.05 -17.25 M-146.1 -90.9 L-140.35 -90.55 Q-140.9 -70.8 -140.65 -48.95 L-95.5 -43.95 Q-96.4 -35.75 -98.05 -27.05 -99.95 -17.3 -102.8 -6.85 -103.45 29.6 -104.15 51.95 -113.05 54.6 -122.1 56.15 L-133.25 57.85 -153.8 61.55 -165.9 63.7 -171.9 64.65 -178.0 65.5 Q-192.3 64.45 -206.5 61.15 -214.85 59.0 -223.1 57.5 L-246.35 53.0 -250.1 52.2 -257.5 9.45 -260.6 -10.25 -262.4 -20.6 -263.15 -24.95 -264.75 -34.75 -233.45 -43.75 Q-233.7 -50.5 -234.35 -57.5 L-236.9 -88.45 -228.4 -89.45 -228.4 -88.3 -222.4 -87.9 -169.5 -83.65 Q-159.3 -86.85 -146.15 -89.9 L-146.1 -90.9 M-100.0 -33.4 L-98.75 -40.25 Q-115.65 -36.7 -132.0 -30.85 -131.05 -13.3 -131.7 -2.55 -133.05 0.05 -134.8 2.1 -135.2 1.1 -138.3 0.1 -140.2 2.2 -140.35 3.55 L-143.05 2.3 -143.05 4.55 Q-144.7 3.0 -145.0 2.3 L-147.4 -26.6 -178.1 -18.8 -178.75 -18.3 -178.9 62.4 Q-164.85 60.3 -150.85 57.65 L-138.9 55.45 -125.4 52.9 -121.6 52.05 -119.85 51.65 -109.1 49.15 -107.45 48.8 Q-106.5 10.95 -105.55 -6.75 L-105.3 -8.45 -104.4 -12.6 Q-102.05 -23.0 -100.0 -33.4 M-98.25 -27.15 Q-98.3 -26.55 -98.2 -27.05 L-98.25 -27.15 M-192.7 -83.75 L-210.1 -85.0 -233.85 -87.0 -230.65 -38.9 Q-200.6 -38.35 -170.1 -31.75 L-171.2 -81.3 Q-180.25 -82.9 -192.7 -83.75 M-232.85 -28.5 L-261.45 -32.35 -248.1 49.95 -182.25 62.4 -181.25 -18.95 -195.2 -22.1 -210.45 -25.05 -221.4 -26.9 -232.85 -28.5 M-233.3 -37.3 L-233.4 -40.25 -257.6 -34.45 Q-240.05 -31.85 -222.4 -30.0 -200.6 -27.35 -179.25 -22.2 L-175.1 -22.05 Q-171.7 -22.75 -168.3 -23.85 -160.7 -26.0 -148.6 -28.3 -156.75 -30.1 -165.15 -31.35 L-169.6 -29.2 Q-187.8 -32.85 -201.15 -34.25 L-205.45 -34.7 -212.05 -35.35 -220.9 -36.2 -233.3 -37.3 M-141.75 -89.45 L-168.9 -81.55 -168.95 -75.3 -167.35 -33.35 -159.6 -36.65 Q-150.85 -40.45 -142.9 -44.25 L-141.75 -89.45 M-160.15 -32.8 Q-157.6 -32.75 -146.05 -28.95 L-135.8 -32.3 -153.2 -36.05 -160.15 -32.8 M-159.65 -36.35 L-159.45 -36.45 -159.6 -36.4 -159.65 -36.35 M-140.6 -47.05 L-140.6 -42.95 Q-148.0 -39.15 -150.9 -37.35 -145.75 -36.25 -135.55 -33.3 L-134.05 -32.9 -100.65 -42.15 -140.6 -47.05 M-135.4 -29.95 L-144.7 -27.25 -143.4 0.25 -141.45 1.7 -138.65 -1.9 -135.6 -0.9 -132.85 -3.7 Q-133.45 -24.3 -135.4 -29.95" fill="#241200" fill-rule="evenodd" stroke="none"/>
    <path d="M224.4 -45.8 Q224.2 -34.0 223.35 -22.1 L199.8 -23.25 200.45 -31.25 Q185.45 -37.2 173.8 -43.9 L157.8 -43.4 159.6 -68.1 224.4 -62.55 224.4 -45.8" fill="url(#gradient0)" fill-rule="evenodd" stroke="none"/>
    <path d="M262.75 -69.6 L260.1 5.75 252.85 8.65 252.95 -20.7 226.75 -22.1 227.4 -30.7 227.75 -39.35 227.9 -52.2 227.9 -62.2 262.75 -69.6" fill="url(#gradient1)" fill-rule="evenodd" stroke="none"/>
    <path d="M257.2 -70.0 Q237.15 -67.35 229.95 -64.9 L217.35 -66.2 161.95 -69.95 Q186.3 -70.3 208.0 -72.6 L233.05 -70.05 Q239.55 -69.55 257.2 -70.0 M99.45 -29.25 Q108.7 -34.7 124.0 -40.9 L174.95 -41.55 Q186.95 -34.9 196.35 -31.5 L99.5 -29.0 99.45 -29.25 M157.25 -20.15 L157.3 -20.15 161.05 -21.45 163.0 -22.15 249.95 -19.3 229.25 -8.65 208.55 -9.55 194.35 -9.95 181.55 -10.4 174.75 -10.6 160.25 -11.1 139.6 -12.15 130.95 -12.15 Q140.2 -14.5 157.3 -20.2 L155.7 -19.65 157.25 -20.15 M-146.15 -89.9 Q-159.3 -86.85 -169.5 -83.65 L-222.4 -87.9 -222.45 -88.7 -206.2 -89.9 Q-181.8 -92.0 -146.15 -89.9 M-233.3 -37.3 L-220.9 -36.2 -212.05 -35.35 -205.45 -34.7 -201.15 -34.25 Q-187.8 -32.85 -169.6 -29.2 L-165.15 -31.35 Q-156.75 -30.1 -148.6 -28.3 -160.7 -26.0 -168.3 -23.85 -171.7 -22.75 -175.1 -22.05 L-179.25 -22.2 Q-200.6 -27.35 -222.4 -30.0 -240.05 -31.85 -257.6 -34.45 L-233.4 -40.25 -233.3 -37.3 M-140.6 -47.05 L-100.65 -42.15 -134.05 -32.9 -135.55 -33.3 Q-145.75 -36.25 -150.9 -37.35 -148.0 -39.15 -140.6 -42.95 L-140.6 -47.05" fill="#cc9900" fill-rule="evenodd" stroke="none"/>
    <path d="M197.6 -29.8 L197.0 -23.25 162.85 -23.6 Q143.65 -18.75 126.35 -12.15 L128.9 68.1 94.2 67.05 Q95.55 19.65 95.85 16.6 96.2 13.5 96.15 9.05 96.1 4.55 98.75 7.7 93.4 -13.8 95.5 -27.05 L197.6 -29.8" fill="url(#gradient2)" fill-rule="evenodd" stroke="none"/>
    <path d="M157.3 -20.2 L157.25 -20.15 155.7 -19.65 157.3 -20.2 M-228.4 -89.45 L-201.5 -91.9 -177.5 -92.3 -146.1 -90.9 -146.15 -89.9 Q-181.8 -92.0 -206.2 -89.9 L-222.45 -88.7 -228.4 -88.3 -228.4 -89.45 M-203.55 -80.6 Q-195.6 -69.05 -193.4 -64.75 L-198.55 -64.75 -196.7 -51.35 Q-204.4 -51.1 -208.6 -51.25 L-208.6 -64.55 -214.3 -64.55 -203.55 -80.6 M-200.65 -66.55 L-196.25 -66.55 -203.6 -77.4 -210.5 -66.3 -206.25 -66.3 -206.25 -53.75 -199.05 -53.75 -200.65 -66.55 M-206.95 1.7 Q-211.85 2.65 -232.1 8.6 L-237.35 10.15 -243.3 -7.1 -227.65 -11.85 Q-222.5 -13.3 -212.0 -16.8 L-206.95 1.7 M-211.35 -7.05 L-213.25 -13.9 -240.45 -4.65 -236.25 7.25 -209.35 0.15 -211.35 -7.05" fill="#000000" fill-rule="evenodd" stroke="none"/>
    <path d="M132.0 70.6 L131.15 59.25 131.05 57.9 130.05 29.9 Q129.7 19.4 130.05 15.2 130.35 10.95 129.0 -9.1 144.3 -10.05 162.0 -8.95 L183.35 -7.45 227.45 -5.5 224.15 57.9 222.2 89.25 132.2 74.35 132.2 73.9 132.15 72.55 132.1 71.75 132.05 70.7 132.0 70.6" fill="url(#gradient3)" fill-rule="evenodd" stroke="none"/>
    <path d="M132.05 70.7 L132.1 72.55 132.0 70.6 132.05 70.7 M-222.4 -87.9 L-228.4 -88.3 -222.45 -88.7 -222.4 -87.9 M-159.65 -36.35 L-159.6 -36.4 -159.45 -36.45 -159.65 -36.35" fill="#ffffff" fill-rule="evenodd" stroke="none"/>
    <path d="M250.05 -17.25 L248.35 73.9 235.75 82.25 226.0 88.5 228.05 57.9 227.9 57.9 230.75 -5.8 250.05 -17.25" fill="url(#gradient4)" fill-rule="evenodd" stroke="none"/>
    <path d="M-100.0 -33.4 Q-102.05 -23.0 -104.4 -12.6 L-105.3 -8.45 -105.55 -6.75 Q-106.5 10.95 -107.45 48.8 L-109.1 49.15 -119.85 51.65 -121.6 52.05 -125.4 52.9 -138.9 55.45 -150.85 57.65 Q-164.85 60.3 -178.9 62.4 L-178.75 -18.3 -178.1 -18.8 -147.4 -26.6 -145.0 2.3 Q-144.7 3.0 -143.05 4.55 L-143.05 2.3 -140.35 3.55 Q-140.2 2.2 -138.3 0.1 -135.2 1.1 -134.8 2.1 -133.05 0.05 -131.7 -2.55 -131.05 -13.3 -132.0 -30.85 -115.65 -36.7 -98.75 -40.25 L-100.0 -33.4" fill="url(#gradient5)" fill-rule="evenodd" stroke="none"/>
    <path d="M-192.7 -83.75 Q-180.25 -82.9 -171.2 -81.3 L-170.1 -31.75 Q-200.6 -38.35 -230.65 -38.9 L-233.85 -87.0 -210.1 -85.0 -192.7 -83.75 M-203.55 -80.6 L-214.3 -64.55 -208.6 -64.55 -208.6 -51.25 Q-204.4 -51.1 -196.7 -51.35 L-198.55 -64.75 -193.4 -64.75 Q-195.6 -69.05 -203.55 -80.6" fill="url(#gradient6)" fill-rule="evenodd" stroke="none"/>
    <path d="M-232.85 -28.5 L-221.4 -26.9 -210.45 -25.05 -195.2 -22.1 -181.25 -18.95 -182.25 62.4 -248.1 49.95 -261.45 -32.35 -232.85 -28.5 M-206.95 1.7 L-212.0 -16.8 Q-222.5 -13.3 -227.65 -11.85 L-243.3 -7.1 -237.35 10.15 -232.1 8.6 Q-211.85 2.65 -206.95 1.7" fill="url(#gradient7)" fill-rule="evenodd" stroke="none"/>
    <path d="M-200.65 -66.55 L-199.05 -53.75 -206.25 -53.75 -206.25 -66.3 -210.5 -66.3 -203.6 -77.4 -196.25 -66.55 -200.65 -66.55" fill="#ff9999" fill-rule="evenodd" stroke="none"/>
    <path d="M-141.75 -89.45 L-142.9 -44.25 Q-150.85 -40.45 -159.6 -36.65 L-167.35 -33.35 -168.95 -75.3 -168.9 -81.55 -141.75 -89.45" fill="url(#gradient8)" fill-rule="evenodd" stroke="none"/>
    <path d="M-160.15 -32.8 L-153.2 -36.05 -135.8 -32.3 -146.05 -28.95 Q-157.6 -32.75 -160.15 -32.8 M-135.4 -29.95 Q-133.45 -24.3 -132.85 -3.7 L-135.6 -0.9 -138.65 -1.9 -141.45 1.7 -143.4 0.25 -144.7 -27.25 -135.4 -29.95" fill="#ccccff" fill-rule="evenodd" stroke="none"/>
    <path d="M-211.35 -7.05 L-209.35 0.15 -236.25 7.25 -240.45 -4.65 -213.25 -13.9 -211.35 -7.05" fill="#ccffcc" fill-rule="evenodd" stroke="none"/>
  </g>
  <defs>
    <linearGradient gradientTransform="matrix(0.0407, 0.0, 0.0, 0.0281, 191.1, -45.1)" gradientUnits="userSpaceOnUse" id="gradient0" spreadMethod="pad" x1="-819.2" x2="819.2">
      <stop offset="0.0" stop-color="#fdf8d7"/>
      <stop offset="1.0" stop-color="#cea426"/>
    </linearGradient>
    <linearGradient gradientTransform="matrix(0.022, 0.0, 0.0, 0.0478, 244.75, -30.5)" gradientUnits="userSpaceOnUse" id="gradient1" spreadMethod="pad" x1="-819.2" x2="819.2">
      <stop offset="0.0" stop-color="#dab58f"/>
      <stop offset="1.0" stop-color="#bf6900"/>
    </linearGradient>
    <linearGradient gradientTransform="matrix(0.0631, 0.0, 0.0, 0.0598, 145.9, 19.15)" gradientUnits="userSpaceOnUse" id="gradient2" spreadMethod="pad" x1="-819.2" x2="819.2">
      <stop offset="0.0" stop-color="#fdf8d7"/>
      <stop offset="1.0" stop-color="#cea426"/>
    </linearGradient>
    <linearGradient gradientTransform="matrix(0.0601, 0.0, 0.0, 0.0603, 178.2, 39.85)" gradientUnits="userSpaceOnUse" id="gradient3" spreadMethod="pad" x1="-819.2" x2="819.2">
      <stop offset="0.0" stop-color="#fdf8d7"/>
      <stop offset="1.0" stop-color="#cea426"/>
    </linearGradient>
    <linearGradient gradientTransform="matrix(0.0147, 0.0, 0.0, 0.0645, 238.0, 35.6)" gradientUnits="userSpaceOnUse" id="gradient4" spreadMethod="pad" x1="-819.2" x2="819.2">
      <stop offset="0.0" stop-color="#dab58f"/>
      <stop offset="1.0" stop-color="#bf6900"/>
    </linearGradient>
    <linearGradient gradientTransform="matrix(0.0489, 0.0, 0.0, 0.0627, -138.85, 11.05)" gradientUnits="userSpaceOnUse" id="gradient5" spreadMethod="pad" x1="-819.2" x2="819.2">
      <stop offset="0.0" stop-color="#dab58f"/>
      <stop offset="1.0" stop-color="#bf6900"/>
    </linearGradient>
    <linearGradient gradientTransform="matrix(0.0389, 0.0, 0.0, 0.0337, -202.0, -59.4)" gradientUnits="userSpaceOnUse" id="gradient6" spreadMethod="pad" x1="-819.2" x2="819.2">
      <stop offset="0.0" stop-color="#fdf8d7"/>
      <stop offset="1.0" stop-color="#cea426"/>
    </linearGradient>
    <linearGradient gradientTransform="matrix(0.049, 0.0, 0.0, 0.0578, -221.35, 15.0)" gradientUnits="userSpaceOnUse" id="gradient7" spreadMethod="pad" x1="-819.2" x2="819.2">
      <stop offset="0.0" stop-color="#fdf8d7"/>
      <stop offset="1.0" stop-color="#cea426"/>
    </linearGradient>
    <linearGradient gradientTransform="matrix(0.0166, 0.0, 0.0, 0.0342, -155.35, -61.4)" gradientUnits="userSpaceOnUse" id="gradient8" spreadMethod="pad" x1="-819.2" x2="819.2">
      <stop offset="0.0" stop-color="#dab58f"/>
      <stop offset="1.0" stop-color="#bf6900"/>
    </linearGradient>
  </defs>
</svg>
