<?xml version="1.0" encoding="UTF-8" standalone="no"?>
<svg xmlns:ffdec="https://www.free-decompiler.com/flash" xmlns:xlink="http://www.w3.org/1999/xlink" ffdec:objectType="shape" height="135.05px" width="501.7px" xmlns="http://www.w3.org/2000/svg">
  <g transform="matrix(1.0, 0.0, 0.0, 1.0, 250.85, 67.5)">
    <path d="M-235.8 67.55 L-238.9 67.55 Q-238.0 47.2 -243.1 -10.15 L-248.95 -11.35 -250.85 -33.65 -188.2 -47.55 -136.95 -44.3 -136.9 -44.8 -135.9 -54.9 Q-121.6 -63.1 -114.35 -66.35 -102.4 -67.0 -35.55 -67.5 L-13.3 -51.4 Q-14.6 -8.55 -14.05 0.9 -4.05 -2.4 5.15 -2.55 L11.25 -2.65 16.15 -2.7 Q18.4 -6.25 22.6 -6.6 22.25 -8.15 21.25 -9.6 L19.1 -12.2 Q15.2 -16.1 10.05 -18.2 7.5 -19.25 7.2 -22.25 6.8 -26.1 8.45 -29.5 L8.85 -30.15 9.35 -30.7 9.85 -31.15 Q12.75 -32.6 16.15 -31.8 22.45 -44.3 30.05 -45.45 31.0 -45.85 32.6 -45.05 41.35 -47.5 49.6 -48.9 L74.3 -52.75 Q79.8 -50.95 80.25 -54.05 85.05 -54.25 111.55 -60.95 141.85 -57.35 157.1 -57.0 L167.7 -56.75 199.4 -56.2 219.95 -56.0 250.85 -55.55 250.85 -53.7 191.05 -53.4 Q163.2 -53.15 111.25 -59.0 95.95 -54.95 83.0 -52.55 81.6 -49.7 77.7 -50.35 L74.3 -50.9 Q58.6 -47.7 42.9 -45.15 L39.2 -44.45 82.2 -39.35 108.1 -37.7 127.25 -36.65 170.15 -34.15 189.9 -31.8 191.3 -31.7 209.2 -36.7 Q218.15 -39.45 227.0 -42.9 230.9 -44.45 250.85 -50.5 L250.85 -47.3 190.15 -29.2 190.15 -4.5 191.6 -4.0 217.7 -13.95 Q227.7 -17.75 237.55 -22.1 243.45 -24.65 250.85 -28.15 L250.85 -24.55 248.55 -23.65 248.55 67.55 246.05 67.55 246.3 -22.7 245.15 -21.8 243.35 24.85 Q243.05 46.6 242.55 57.7 L242.55 67.55 240.25 67.55 240.25 59.2 206.6 25.6 206.0 41.3 Q212.85 47.65 219.4 54.55 L224.55 59.8 232.45 67.55 229.1 67.55 206.05 44.25 205.35 62.0 211.4 67.55 207.8 67.55 205.7 65.6 205.55 67.55 202.15 67.55 Q202.15 57.2 202.4 46.95 L202.9 34.45 204.9 -6.1 187.35 -0.2 186.15 67.55 182.6 67.55 184.7 -1.1 167.1 -4.95 Q166.3 26.3 166.5 37.85 166.7 49.05 166.05 67.55 L162.5 67.55 162.5 46.9 140.15 67.55 137.05 67.55 155.95 49.95 162.8 43.6 Q163.0 28.65 163.35 21.75 L154.95 28.55 Q152.0 31.1 143.85 40.0 143.2 43.95 137.75 44.2 L125.45 57.1 114.85 67.55 111.55 67.55 Q121.05 59.7 128.15 52.1 136.2 43.4 136.35 42.5 140.0 43.05 141.8 40.7 142.85 39.0 140.95 38.25 L163.3 17.45 Q164.3 0.2 164.3 -5.5 L159.8 -6.1 94.2 61.0 95.0 67.55 91.35 67.55 89.55 63.0 Q87.05 55.95 85.45 52.45 83.3 47.7 79.8 44.15 77.3 41.55 74.2 35.95 L68.85 25.6 Q66.6 20.85 59.5 15.35 52.35 9.8 48.1 7.25 L30.1 0.85 28.55 0.6 Q27.5 0.55 26.5 1.05 L24.5 1.85 Q14.4 -2.35 -2.25 1.0 -18.9 4.3 -31.5 17.1 -44.1 29.85 -46.4 45.7 -48.35 59.1 -50.15 63.3 L-50.8 64.5 -53.1 67.55 -57.0 67.55 Q-55.2 65.3 -54.15 61.75 L-54.55 46.65 -68.9 67.55 -72.1 67.55 -54.8 41.8 -54.85 18.15 -84.85 67.55 -87.45 67.55 Q-82.3 59.8 -81.15 57.7 L-76.85 50.4 -54.7 15.65 Q-54.95 11.65 -54.65 -0.2 L-60.25 1.9 -96.35 64.6 -96.2 67.55 -100.7 67.55 -100.6 46.85 Q-100.6 38.65 -101.5 19.55 L-115.0 24.45 -117.75 23.55 -116.2 67.55 -119.9 67.55 -120.95 22.55 -138.9 17.15 -137.1 67.55 -140.75 67.55 -140.75 65.55 -155.05 44.65 Q-160.25 37.2 -165.55 29.9 L-184.5 3.7 -202.65 -1.25 -189.5 18.0 Q-183.6 25.95 -178.05 33.9 L-170.5 44.7 Q-162.7 55.75 -155.45 67.55 L-157.7 67.55 -207.5 -2.55 -217.05 -4.95 -216.35 6.85 -205.05 22.5 -176.2 65.9 -175.1 67.55 -177.35 67.55 -215.6 13.2 -214.5 34.6 -192.5 67.55 -194.7 67.55 -213.85 40.15 Q-213.6 48.7 -211.95 62.95 L-208.55 67.55 -210.75 67.55 -211.6 66.2 -211.45 67.55 -214.2 67.55 Q-217.95 26.9 -219.25 1.3 L-219.6 -5.6 -221.4 -5.9 Q-220.45 31.7 -216.65 66.85 L-216.65 67.2 -219.25 67.2 -219.3 67.2 Q-220.4 58.8 -220.7 54.5 -222.35 30.9 -223.45 7.25 L-223.9 -6.4 -240.4 -9.7 Q-236.85 31.95 -235.8 67.55 M34.1 -43.4 Q36.2 -41.55 37.6 -38.3 39.0 -35.05 43.05 -34.6 47.05 -34.15 48.4 -32.45 49.75 -30.8 51.6 -26.4 50.25 -25.95 49.65 -25.4 L48.4 -24.1 Q47.45 -22.95 47.6 -21.5 L100.1 -18.15 122.15 -14.95 129.0 -14.15 140.6 -12.75 151.3 -11.4 161.95 -9.6 166.7 -8.7 174.9 -7.05 182.7 -5.4 186.8 -4.7 187.5 -28.5 170.0 -30.8 152.9 -32.2 134.6 -33.1 115.15 -34.15 95.55 -35.15 78.55 -36.4 59.35 -38.55 42.45 -41.45 Q38.65 -42.1 34.1 -43.4 M45.6 -2.5 Q48.25 -9.7 45.85 -17.4 44.0 -23.2 49.55 -27.15 48.55 -29.7 45.9 -31.3 43.25 -32.9 40.5 -33.5 37.75 -34.15 35.2 -39.4 32.65 -44.6 30.25 -43.9 19.45 -39.55 18.15 -30.5 23.95 -22.55 25.4 -15.25 21.6 -26.15 17.6 -28.4 13.6 -30.7 10.95 -28.8 8.25 -26.9 9.5 -21.05 L15.55 -18.5 Q24.85 -14.25 26.95 -4.95 28.4 -6.8 31.45 -5.3 32.55 -17.15 26.05 -27.9 34.2 -17.45 34.65 -4.95 35.55 -5.55 38.1 -4.45 40.05 -16.15 37.45 -28.0 41.9 -16.55 41.2 -4.2 L42.65 -3.75 Q44.25 -7.75 44.5 -14.1 45.65 -8.5 45.1 -2.55 L44.95 -1.35 45.55 -2.3 45.6 -2.5 M33.5 -0.15 Q32.25 -1.5 31.75 -3.55 27.25 -5.35 25.8 -1.1 28.95 -3.75 33.5 -0.15 M23.55 -1.1 Q23.4 -2.7 24.8 -3.85 22.0 -6.35 19.4 -2.4 L23.55 -1.1 M57.95 -18.55 L48.05 -19.35 Q49.9 -13.0 49.85 -6.6 49.85 -4.9 47.35 0.0 48.55 0.4 49.1 4.5 L57.4 9.45 57.95 -18.55 M65.6 -3.8 L77.35 -16.7 64.9 -17.7 65.6 -3.8 M79.65 -16.4 L65.65 -0.55 66.2 17.0 69.9 21.7 104.55 -14.15 Q95.9 -15.7 87.0 -16.1 L79.65 -16.4 M62.2 -18.05 L60.55 -18.2 59.75 11.15 63.95 14.9 62.2 -18.05 M157.35 -6.6 Q144.8 -9.25 135.35 -10.2 L104.25 20.85 Q99.3 28.4 96.4 29.7 L85.85 43.35 89.3 49.3 Q91.9 53.5 93.2 58.15 L98.55 53.05 107.05 45.4 113.75 38.45 120.05 31.55 Q123.45 27.8 127.9 23.4 L157.35 -6.6 M107.45 -13.95 L93.55 -0.1 85.55 8.2 83.15 10.9 71.65 24.3 Q73.95 29.9 77.35 34.7 L79.75 37.8 83.1 41.55 Q92.45 32.6 96.5 27.7 100.5 22.8 97.5 22.95 98.8 21.85 103.5 20.15 115.7 6.65 124.55 -2.4 L129.2 -7.25 132.2 -10.6 107.45 -13.95 M242.0 -10.5 L242.8 -20.8 240.85 -20.0 235.6 -17.9 242.0 -10.5 M241.55 -7.5 L233.55 -16.9 223.35 -12.8 241.0 4.4 241.55 -7.5 M221.9 -12.3 L210.9 -8.3 240.55 24.65 241.15 8.6 236.3 3.35 Q229.0 -4.25 221.9 -12.3 M206.7 8.0 L206.7 23.3 240.1 55.35 Q240.15 45.1 240.35 41.1 L206.7 8.0 M240.4 27.6 Q227.95 14.4 221.75 7.2 219.1 4.15 207.5 -7.05 L207.3 5.2 240.45 38.2 Q240.3 34.9 240.4 27.6 M36.3 0.7 L40.05 0.8 40.85 1.05 Q40.4 -3.75 34.4 -2.95 L35.6 0.25 36.3 0.7 M42.45 1.75 L46.05 3.9 Q46.1 -0.75 41.75 -1.65 42.6 -0.4 42.45 1.75 M-247.65 -31.05 Q-247.9 -28.9 -246.1 -13.5 L-235.25 -11.4 -208.2 -5.2 Q-187.9 -0.45 -167.8 5.2 -148.65 10.75 -119.75 19.75 L-120.8 -1.05 -142.45 -6.8 -185.45 -16.45 -185.45 -17.05 -185.6 -9.7 -191.35 -18.05 -247.65 -31.05 M-188.1 -17.95 L-185.2 -20.1 -120.45 -5.45 -76.1 -18.2 -39.3 -28.7 -59.7 -31.0 -80.2 -33.45 -100.65 -36.25 -118.6 -38.75 -132.6 -41.05 -187.9 -45.8 Q-206.2 -41.7 -240.4 -32.3 L-189.3 -21.45 -188.1 -17.95 M-132.4 -52.95 Q-132.35 -50.75 -133.4 -43.8 L-106.55 -40.65 -31.8 -29.55 Q-31.6 -24.1 -31.65 -10.05 L-35.3 -7.85 -34.25 14.7 Q-28.3 9.35 -21.45 4.9 L-17.4 2.55 -16.25 -48.65 Q-105.6 -49.05 -132.4 -52.95 M-128.8 -55.5 L-127.15 -55.35 Q-109.3 -53.15 -18.55 -51.1 L-37.0 -65.3 -111.5 -63.9 -128.8 -55.5 M-85.0 -11.95 Q-100.45 -6.6 -115.9 -1.9 L-115.1 19.95 -34.25 -12.05 -34.25 -27.75 -45.2 -24.8 Q-53.85 -22.35 -62.35 -19.5 L-85.0 -11.95 M-49.7 -1.7 L-52.35 -0.75 -50.8 56.15 Q-49.1 46.1 -47.45 38.2 L-49.7 -1.7 M-38.1 -6.5 Q-47.0 -2.95 -48.0 -2.3 -46.15 18.7 -45.85 36.15 -42.7 27.1 -37.8 19.3 L-38.1 -6.5 M-64.05 3.45 L-79.3 10.15 -83.15 17.8 Q-87.95 27.8 -94.0 37.1 L-96.6 41.35 -96.4 58.85 -87.35 44.4 -80.7 33.2 Q-78.05 28.45 -75.05 23.85 -68.75 14.25 -63.8 4.05 L-63.55 3.2 -64.05 3.45 M-82.95 11.55 L-96.95 17.9 -96.9 37.25 -82.95 11.55 M-157.6 10.9 L-141.75 33.65 -141.55 16.3 -157.6 10.9 M-141.45 37.9 Q-157.85 14.45 -160.1 10.5 L-179.5 4.8 Q-158.65 32.45 -140.8 62.25 L-141.45 37.9" fill="#241200" fill-rule="evenodd" stroke="none"/>
    <path d="M250.85 -50.5 Q230.9 -44.45 227.0 -42.9 218.15 -39.45 209.2 -36.7 L191.3 -31.7 189.9 -31.8 170.15 -34.15 127.25 -36.65 108.1 -37.7 82.2 -39.35 39.2 -44.45 42.9 -45.15 Q58.6 -47.7 74.3 -50.9 L77.7 -50.35 Q81.6 -49.7 83.0 -52.55 95.95 -54.95 111.25 -59.0 163.2 -53.15 191.05 -53.4 L250.85 -53.7 250.85 -50.5" fill="url(#gradient0)" fill-rule="evenodd" stroke="none"/>
    <path d="M45.6 -2.5 L45.55 -2.3 44.95 -1.35 45.1 -2.55 45.6 -2.5" fill="url(#gradient1)" fill-rule="evenodd" stroke="none"/>
    <path d="M-235.8 67.55 Q-236.85 31.95 -240.4 -9.7 L-223.9 -6.4 -223.45 7.25 Q-222.35 30.9 -220.7 54.5 -220.4 58.8 -219.3 67.2 L-219.25 67.2 -219.15 67.45 -219.25 67.55 -235.8 67.55 M-137.1 67.55 L-138.9 17.15 -120.95 22.55 -119.9 67.55 -137.1 67.55 M-116.2 67.55 L-117.75 23.55 -115.0 24.45 -101.5 19.55 Q-100.6 38.65 -100.6 46.85 L-100.7 67.55 -116.2 67.55 M166.05 67.55 Q166.7 49.05 166.5 37.85 166.3 26.3 167.1 -4.95 L184.7 -1.1 182.6 67.55 166.05 67.55 M186.15 67.55 L187.35 -0.2 204.9 -6.1 202.9 34.45 202.4 46.95 Q202.15 57.2 202.15 67.55 L186.15 67.55 M248.55 67.55 L248.55 -23.65 250.85 -24.55 250.85 67.55 248.55 67.55 M250.85 -28.15 Q243.45 -24.65 237.55 -22.1 227.7 -17.75 217.7 -13.95 L191.6 -4.0 190.15 -4.5 190.15 -29.2 250.85 -47.3 250.85 -28.15 M34.1 -43.4 Q38.65 -42.1 42.45 -41.45 L59.35 -38.55 78.55 -36.4 95.55 -35.15 115.15 -34.15 134.6 -33.1 152.9 -32.2 170.0 -30.8 187.5 -28.5 186.8 -4.7 182.7 -5.4 174.9 -7.05 166.7 -8.7 161.95 -9.6 151.3 -11.4 140.6 -12.75 129.0 -14.15 122.15 -14.95 100.1 -18.15 47.6 -21.5 Q47.45 -22.95 48.4 -24.1 L49.65 -25.4 Q50.25 -25.95 51.6 -26.4 49.75 -30.8 48.4 -32.45 47.05 -34.15 43.05 -34.6 39.0 -35.05 37.6 -38.3 36.2 -41.55 34.1 -43.4 M57.95 -18.55 L57.4 9.45 49.1 4.5 Q48.55 0.4 47.35 0.0 49.85 -4.9 49.85 -6.6 49.9 -13.0 48.05 -19.35 L57.95 -18.55 M-247.65 -31.05 L-191.35 -18.05 -185.6 -9.7 -185.45 -17.05 -185.45 -16.45 -142.45 -6.8 -120.8 -1.05 -119.75 19.75 Q-148.65 10.75 -167.8 5.2 -187.9 -0.45 -208.2 -5.2 L-235.25 -11.4 -246.1 -13.5 Q-247.9 -28.9 -247.65 -31.05 M-132.4 -52.95 Q-105.6 -49.05 -16.25 -48.65 L-17.4 2.55 -21.45 4.9 Q-28.3 9.35 -34.25 14.7 L-35.3 -7.85 -31.65 -10.05 Q-31.6 -24.1 -31.8 -29.55 L-106.55 -40.65 -133.4 -43.8 Q-132.35 -50.75 -132.4 -52.95 M-85.0 -11.95 L-62.35 -19.5 Q-53.85 -22.35 -45.2 -24.8 L-34.25 -27.75 -34.25 -12.05 -115.1 19.95 -115.9 -1.9 Q-100.45 -6.6 -85.0 -11.95 M-38.1 -6.5 L-37.8 19.3 Q-42.7 27.1 -45.85 36.15 -46.15 18.7 -48.0 -2.3 -47.0 -2.95 -38.1 -6.5" fill="#cc9966" fill-rule="evenodd" stroke="none"/>
    <path d="M95.0 67.55 L94.2 61.0 159.8 -6.1 164.3 -5.5 Q164.3 0.2 163.3 17.45 L140.95 38.25 Q142.85 39.0 141.8 40.7 140.0 43.05 136.35 42.5 136.2 43.4 128.15 52.1 121.05 59.7 111.55 67.55 L95.0 67.55 M114.85 67.55 L125.45 57.1 137.75 44.2 Q143.2 43.95 143.85 40.0 152.0 31.1 154.95 28.55 L163.35 21.75 Q163.0 28.65 162.8 43.6 L155.95 49.95 137.05 67.55 114.85 67.55 M140.15 67.55 L162.5 46.9 162.5 67.55 140.15 67.55 M79.65 -16.4 L87.0 -16.1 Q95.9 -15.7 104.55 -14.15 L69.9 21.7 66.2 17.0 65.65 -0.55 79.65 -16.4 M65.6 -3.8 L64.9 -17.7 77.35 -16.7 65.6 -3.8 M107.45 -13.95 L132.2 -10.6 129.2 -7.25 124.55 -2.4 Q115.7 6.65 103.5 20.15 98.8 21.85 97.5 22.95 100.5 22.8 96.5 27.7 92.45 32.6 83.1 41.55 L79.75 37.8 77.35 34.7 Q73.95 29.9 71.65 24.3 L83.15 10.9 85.55 8.2 93.55 -0.1 107.45 -13.95 M157.35 -6.6 L127.9 23.4 Q123.45 27.8 120.05 31.55 L113.75 38.45 107.05 45.4 98.55 53.05 93.2 58.15 Q91.9 53.5 89.3 49.3 L85.85 43.35 96.4 29.7 Q99.3 28.4 104.25 20.85 L135.35 -10.2 Q144.8 -9.25 157.35 -6.6" fill="url(#gradient2)" fill-rule="evenodd" stroke="none"/>
    <path d="M-216.65 66.85 Q-220.45 31.7 -221.4 -5.9 L-219.6 -5.6 -219.25 1.3 Q-217.95 26.9 -214.2 67.55 L-216.35 67.55 -216.65 67.2 -216.65 66.85 M242.55 67.55 L242.55 57.7 Q243.05 46.6 243.35 24.85 L245.15 -21.8 246.3 -22.7 246.05 67.55 242.55 67.55 M62.2 -18.05 L63.95 14.9 59.75 11.15 60.55 -18.2 62.2 -18.05 M-49.7 -1.7 L-47.45 38.2 Q-49.1 46.1 -50.8 56.15 L-52.35 -0.75 -49.7 -1.7" fill="#663300" fill-rule="evenodd" stroke="none"/>
    <path d="M205.55 67.55 L205.7 65.6 207.8 67.55 205.55 67.55 M211.4 67.55 L205.35 62.0 206.05 44.25 229.1 67.55 211.4 67.55 M232.45 67.55 L224.55 59.8 219.4 54.55 Q212.85 47.65 206.0 41.3 L206.6 25.6 240.25 59.2 240.25 67.55 232.45 67.55 M221.9 -12.3 Q229.0 -4.25 236.3 3.35 L241.15 8.6 240.55 24.65 210.9 -8.3 221.9 -12.3 M241.55 -7.5 L241.0 4.4 223.35 -12.8 233.55 -16.9 241.55 -7.5 M242.0 -10.5 L235.6 -17.9 240.85 -20.0 242.8 -20.8 242.0 -10.5 M206.7 8.0 L240.35 41.1 Q240.15 45.1 240.1 55.35 L206.7 23.3 206.7 8.0 M240.4 27.6 Q240.3 34.9 240.45 38.2 L207.3 5.2 207.5 -7.05 Q219.1 4.15 221.75 7.2 227.95 14.4 240.4 27.6" fill="url(#gradient3)" fill-rule="evenodd" stroke="none"/>
    <path d="M-219.3 67.2 L-219.25 67.2 -219.3 67.2 M-216.65 67.2 L-216.65 66.85 -216.65 67.2 M23.4 6.8 Q19.5 9.55 14.9 9.7 21.2 7.1 28.4 1.75 25.95 4.95 23.4 6.8 M29.0 13.7 Q29.35 10.25 34.05 6.0 31.25 10.7 28.4 18.3 L29.0 13.7 M34.7 14.6 Q35.2 10.45 38.75 8.4 36.05 11.3 35.6 18.8 34.45 16.95 34.7 14.6 M-136.7 -49.5 L-136.75 -49.65 Q-136.7 -50.15 -136.7 -49.5" fill="#000000" fill-rule="evenodd" stroke="none"/>
    <path d="M-211.45 67.55 L-211.6 66.2 -210.75 67.55 -211.45 67.55 M-208.55 67.55 L-211.95 62.95 Q-213.6 48.7 -213.85 40.15 L-194.7 67.55 -208.55 67.55 M-192.5 67.55 L-214.5 34.6 -215.6 13.2 -177.35 67.55 -192.5 67.55 M-175.1 67.55 L-176.2 65.9 -205.05 22.5 -216.35 6.85 -217.05 -4.95 -207.5 -2.55 -157.7 67.55 -175.1 67.55 M-155.45 67.55 Q-162.7 55.75 -170.5 44.7 L-178.05 33.9 Q-183.6 25.95 -189.5 18.0 L-202.65 -1.25 -184.5 3.7 -165.55 29.9 Q-160.25 37.2 -155.05 44.65 L-140.75 65.55 -140.75 67.55 -155.45 67.55 M-141.45 37.9 L-140.8 62.25 Q-158.65 32.45 -179.5 4.8 L-160.1 10.5 Q-157.85 14.45 -141.45 37.9 M-157.6 10.9 L-141.55 16.3 -141.75 33.65 -157.6 10.9" fill="url(#gradient4)" fill-rule="evenodd" stroke="none"/>
    <path d="M-188.1 -17.95 L-189.3 -21.45 -240.4 -32.3 Q-206.2 -41.7 -187.9 -45.8 L-132.6 -41.05 -118.6 -38.75 -100.65 -36.25 -80.2 -33.45 -59.7 -31.0 -39.3 -28.7 -76.1 -18.2 -120.45 -5.45 -185.2 -20.1 -188.1 -17.95 M-128.8 -55.5 L-111.5 -63.9 -37.0 -65.3 -18.55 -51.1 Q-109.3 -53.15 -127.15 -55.35 L-128.8 -55.5" fill="url(#gradient5)" fill-rule="evenodd" stroke="none"/>
    <path d="M-96.2 67.55 L-96.35 64.6 -60.25 1.9 -54.65 -0.2 Q-54.95 11.65 -54.7 15.65 L-76.85 50.4 -81.15 57.7 Q-82.3 59.8 -87.45 67.55 L-96.2 67.55 M-84.85 67.55 L-54.85 18.15 -54.8 41.8 -72.1 67.55 -84.85 67.55 M-68.9 67.55 L-54.55 46.65 -54.15 61.75 Q-55.2 65.3 -57.0 67.55 L-68.9 67.55 M-64.05 3.45 L-63.8 4.05 Q-68.75 14.25 -75.05 23.85 -78.05 28.45 -80.7 33.2 L-87.35 44.4 -96.4 58.85 -96.6 41.35 -94.0 37.1 Q-87.95 27.8 -83.15 17.8 L-79.3 10.15 -64.05 3.45 M-82.95 11.55 L-96.9 37.25 -96.95 17.9 -82.95 11.55" fill="url(#gradient6)" fill-rule="evenodd" stroke="none"/>
    <path d="M-63.8 4.05 L-64.05 3.45 -63.55 3.2 -63.8 4.05" fill="#999999" fill-rule="evenodd" stroke="none"/>
    <path d="M23.55 -1.1 L19.4 -2.4 Q22.0 -6.35 24.8 -3.85 23.4 -2.7 23.55 -1.1 M33.5 -0.15 Q28.95 -3.75 25.8 -1.1 27.25 -5.35 31.75 -3.55 32.25 -1.5 33.5 -0.15 M42.45 1.75 Q42.6 -0.4 41.75 -1.65 46.1 -0.75 46.05 3.9 L42.45 1.75 M36.3 0.7 L35.6 0.25 34.4 -2.95 Q40.4 -3.75 40.85 1.05 L40.05 0.8 36.3 0.7" fill="#cc9900" fill-rule="evenodd" stroke="none"/>
    <path d="M-53.1 67.55 L-50.8 64.5 -50.15 63.3 Q-48.35 59.1 -46.4 45.7 -44.1 29.85 -31.5 17.1 -18.9 4.3 -2.25 1.0 14.4 -2.35 24.5 1.85 L26.5 1.05 Q27.5 0.55 28.55 0.6 L30.1 0.85 48.1 7.25 Q52.35 9.8 59.5 15.35 66.6 20.85 68.85 25.6 L74.2 35.95 Q77.3 41.55 79.8 44.15 83.3 47.7 85.45 52.45 87.05 55.95 89.55 63.0 L91.35 67.55 -53.1 67.55 M34.7 14.6 Q34.45 16.95 35.6 18.8 36.05 11.3 38.75 8.4 35.2 10.45 34.7 14.6 M29.0 13.7 L28.4 18.3 Q31.25 10.7 34.05 6.0 29.35 10.25 29.0 13.7 M23.4 6.8 Q25.95 4.95 28.4 1.75 21.2 7.1 14.9 9.7 19.5 9.55 23.4 6.8" fill="url(#gradient7)" fill-rule="evenodd" stroke="none"/>
    <path d="M45.1 -2.55 Q45.65 -8.5 44.5 -14.1 44.25 -7.75 42.65 -3.75 L41.2 -4.2 Q41.9 -16.55 37.45 -28.0 40.05 -16.15 38.1 -4.45 35.55 -5.55 34.65 -4.95 34.2 -17.45 26.05 -27.9 32.55 -17.15 31.45 -5.3 28.4 -6.8 26.95 -4.95 24.85 -14.25 15.55 -18.5 L9.5 -21.05 Q8.25 -26.9 10.95 -28.8 13.6 -30.7 17.6 -28.4 21.6 -26.15 25.4 -15.25 23.95 -22.55 18.15 -30.5 19.45 -39.55 30.25 -43.9 32.65 -44.6 35.2 -39.4 37.75 -34.15 40.5 -33.5 43.25 -32.9 45.9 -31.3 48.55 -29.7 49.55 -27.15 44.0 -23.2 45.85 -17.4 48.25 -9.7 45.6 -2.5 L45.1 -2.55" fill="url(#gradient8)" fill-rule="evenodd" stroke="none"/>
  </g>
  <defs>
    <linearGradient gradientTransform="matrix(0.1356, 0.0, 0.0, 0.0167, 150.3, -45.35)" gradientUnits="userSpaceOnUse" id="gradient0" spreadMethod="pad" x1="-819.2" x2="819.2">
      <stop offset="0.0" stop-color="#dab58f"/>
      <stop offset="1.0" stop-color="#bf6900"/>
    </linearGradient>
    <radialGradient cx="0" cy="0" gradientTransform="matrix(0.0411, 0.0, 0.0, 0.0411, 31.65, -32.45)" gradientUnits="userSpaceOnUse" id="gradient1" r="819.2" spreadMethod="pad">
      <stop offset="0.0" stop-color="#cccccc"/>
      <stop offset="1.0" stop-color="#666666"/>
    </radialGradient>
    <linearGradient gradientTransform="matrix(-0.0265, 0.0458, -0.0293, -0.0169, 103.75, 19.9)" gradientUnits="userSpaceOnUse" id="gradient2" spreadMethod="pad" x1="-819.2" x2="819.2">
      <stop offset="0.0" stop-color="#cc9966"/>
      <stop offset="1.0" stop-color="#663300"/>
    </linearGradient>
    <linearGradient gradientTransform="matrix(0.0144, 0.0249, -0.0269, 0.0156, 218.3, 15.2)" gradientUnits="userSpaceOnUse" id="gradient3" spreadMethod="pad" x1="-819.2" x2="819.2">
      <stop offset="0.0" stop-color="#cc9966"/>
      <stop offset="1.0" stop-color="#663300"/>
    </linearGradient>
    <linearGradient gradientTransform="matrix(-0.0128, 0.0224, -0.0471, -0.027, -172.15, 35.05)" gradientUnits="userSpaceOnUse" id="gradient4" spreadMethod="pad" x1="-819.2" x2="819.2">
      <stop offset="0.0" stop-color="#cc9966"/>
      <stop offset="1.0" stop-color="#663300"/>
    </linearGradient>
    <linearGradient gradientTransform="matrix(0.1227, 0.0, 0.0, 0.0246, -139.85, -25.65)" gradientUnits="userSpaceOnUse" id="gradient5" spreadMethod="pad" x1="-819.2" x2="819.2">
      <stop offset="0.0" stop-color="#dab58f"/>
      <stop offset="1.0" stop-color="#bf6900"/>
    </linearGradient>
    <linearGradient gradientTransform="matrix(0.0136, 0.0234, -0.0375, 0.0217, -74.65, 35.9)" gradientUnits="userSpaceOnUse" id="gradient6" spreadMethod="pad" x1="-819.2" x2="819.2">
      <stop offset="0.0" stop-color="#cc9966"/>
      <stop offset="1.0" stop-color="#663300"/>
    </linearGradient>
    <radialGradient cx="0" cy="0" gradientTransform="matrix(0.1339, 0.0, 0.0, 0.1339, -10.75, 28.35)" gradientUnits="userSpaceOnUse" id="gradient7" r="819.2" spreadMethod="pad">
      <stop offset="0.0" stop-color="#d5c8bf"/>
      <stop offset="1.0" stop-color="#856445"/>
    </radialGradient>
    <radialGradient cx="0" cy="0" gradientTransform="matrix(0.0411, 0.0, 0.0, 0.0411, 31.65, -32.45)" gradientUnits="userSpaceOnUse" id="gradient8" r="819.2" spreadMethod="pad">
      <stop offset="0.0" stop-color="#d5c8bf"/>
      <stop offset="1.0" stop-color="#856445"/>
    </radialGradient>
  </defs>
</svg>
