<?xml version="1.0" encoding="UTF-8" standalone="no"?>
<svg xmlns:ffdec="https://www.free-decompiler.com/flash" xmlns:xlink="http://www.w3.org/1999/xlink" ffdec:objectType="shape" height="119.6px" width="103.8px" xmlns="http://www.w3.org/2000/svg">
  <g transform="matrix(1.0, 0.0, 0.0, 1.0, 51.9, 59.8)">
    <path d="M51.9 7.9 Q51.9 29.45 36.7 44.6 21.55 59.8 0.0 59.8 -21.55 59.8 -36.75 44.6 -51.9 29.45 -51.9 7.9 -51.9 -13.65 -36.75 -28.85 -21.55 -44.0 0.0 -44.0 21.55 -44.0 36.7 -28.85 51.9 -13.65 51.9 7.9" fill="url(#gradient0)" fill-rule="evenodd" stroke="none"/>
    <path d="M-0.05 -59.8 L0.3 -50.7 Q0.8 -19.9 0.95 -19.45 2.85 -19.0 3.95 -18.2 L3.95 -16.1 6.2 -16.3 Q6.75 -19.4 7.4 -17.5 8.0 -15.6 7.45 -14.0 6.9 -12.45 6.2 -15.35 L3.95 -15.1 3.95 -13.65 Q6.15 -12.8 4.75 -11.15 5.75 -9.3 4.4 -8.9 6.15 -6.85 4.5 -6.65 5.5 -1.25 9.6 4.55 13.55 10.1 7.35 18.25 4.7 21.7 0.55 21.75 -4.8 22.1 -8.8 15.7 -12.8 9.3 -9.0 4.05 -5.2 -1.2 -4.2 -6.55 -6.1 -6.35 -5.15 -9.0 -6.75 -9.35 -5.4 -11.15 -6.95 -11.85 -4.65 -13.55 L-4.55 -18.5 Q-4.0 -19.4 -1.3 -19.55 -1.25 -32.15 -1.5 -59.1 L-0.05 -59.8 M-4.35 -11.65 L0.55 -12.25 Q3.75 -12.15 4.05 -11.65 5.4 -13.3 -0.05 -13.35 -5.55 -13.4 -4.35 -11.65 M-4.4 -9.65 Q-2.7 -10.35 0.5 -10.25 3.7 -10.15 4.0 -9.65 5.35 -11.3 -0.1 -11.35 -5.6 -11.4 -4.4 -9.65 M-4.4 -7.5 Q-2.7 -8.2 0.5 -8.1 3.7 -8.0 4.0 -7.5 5.35 -9.15 -0.1 -9.2 -5.6 -9.25 -4.4 -7.5 M2.95 -13.8 L2.6 -17.75 Q0.1 -18.95 -3.3 -17.85 L-3.3 -13.9 Q-0.4 -14.8 2.95 -13.8 M-2.6 8.65 Q-2.45 9.8 -1.1 8.9 0.2 7.9 0.05 7.25 -2.8 7.5 -2.6 8.65 M2.8 9.4 Q3.1 9.65 3.45 9.0 3.75 8.3 3.05 7.4 2.3 6.45 1.05 7.1 1.0 8.25 2.8 9.4 M-6.35 3.05 Q-10.25 7.8 -7.7 13.85 -5.35 19.45 0.0 19.75 L0.15 19.75 0.25 19.75 0.3 19.75 Q5.4 19.45 7.8 14.35 L8.0 13.85 Q10.55 7.8 6.65 3.05 2.75 -1.75 2.65 -5.35 L0.75 -5.9 Q0.45 -5.85 0.85 6.7 4.15 5.1 3.85 9.15 2.8 11.2 0.7 8.05 L-0.65 9.3 Q-3.3 11.4 -3.3 8.6 -3.35 5.9 0.3 6.7 L-0.4 -5.8 Q-2.0 -5.9 -2.35 -5.35 -2.45 -1.75 -6.35 3.05" fill="#442200" fill-rule="evenodd" stroke="none"/>
    <path d="M2.95 -13.8 Q-0.4 -14.8 -3.3 -13.9 L-3.3 -17.85 Q0.1 -18.95 2.6 -17.75 L2.95 -13.8 M-4.4 -7.5 Q-5.6 -9.25 -0.1 -9.2 5.35 -9.15 4.0 -7.5 3.7 -8.0 0.5 -8.1 -2.7 -8.2 -4.4 -7.5 M-4.4 -9.65 Q-5.6 -11.4 -0.1 -11.35 5.35 -11.3 4.0 -9.65 3.7 -10.15 0.5 -10.25 -2.7 -10.35 -4.4 -9.65 M-4.35 -11.65 Q-5.55 -13.4 -0.05 -13.35 5.4 -13.3 4.05 -11.65 3.75 -12.15 0.55 -12.25 L-4.35 -11.65" fill="#999966" fill-rule="evenodd" stroke="none"/>
    <path d="M-6.35 3.05 Q-2.45 -1.75 -2.35 -5.35 -2.0 -5.9 -0.4 -5.8 L0.3 6.7 Q-3.35 5.9 -3.3 8.6 -3.3 11.4 -0.65 9.3 L0.7 8.05 Q2.8 11.2 3.85 9.15 4.15 5.1 0.85 6.7 0.45 -5.85 0.75 -5.9 L2.65 -5.35 Q2.75 -1.75 6.65 3.05 10.55 7.8 8.0 13.85 L7.8 14.35 Q5.4 19.45 0.3 19.75 L0.25 19.75 0.15 19.75 0.0 19.75 Q-5.35 19.45 -7.7 13.85 -10.25 7.8 -6.35 3.05 M2.8 9.4 Q1.0 8.25 1.05 7.1 2.3 6.45 3.05 7.4 3.75 8.3 3.45 9.0 3.1 9.65 2.8 9.4 M-2.6 8.65 Q-2.8 7.5 0.05 7.25 0.2 7.9 -1.1 8.9 -2.45 9.8 -2.6 8.65" fill="url(#gradient1)" fill-rule="evenodd" stroke="none"/>
  </g>
  <defs>
    <radialGradient cx="0" cy="0" gradientTransform="matrix(0.0651, 0.0, 0.0, 0.0651, 0.0, 7.9)" gradientUnits="userSpaceOnUse" id="gradient0" r="819.2" spreadMethod="pad">
      <stop offset="0.0" stop-color="#fff040"/>
      <stop offset="0.5137254901960784" stop-color="#fff040" stop-opacity="0.2"/>
      <stop offset="1.0" stop-color="#fff040" stop-opacity="0.0"/>
    </radialGradient>
    <radialGradient cx="0" cy="0" gradientTransform="matrix(0.025, 0.0, 0.0, 0.025, 0.05, 7.25)" gradientUnits="userSpaceOnUse" id="gradient1" r="819.2" spreadMethod="pad">
      <stop offset="0.0" stop-color="#ffffff"/>
      <stop offset="1.0" stop-color="#fff040"/>
    </radialGradient>
  </defs>
</svg>
