<?xml version="1.0" encoding="UTF-8" standalone="no"?>
<svg xmlns:ffdec="https://www.free-decompiler.com/flash" xmlns:xlink="http://www.w3.org/1999/xlink" ffdec:objectType="shape" height="155.5px" width="230.8px" xmlns="http://www.w3.org/2000/svg">
  <g transform="matrix(1.0, 0.0, 0.0, 1.0, 212.2, 63.15)">
    <path d="M-187.75 1.5 Q-183.05 -20.0 -168.5 -32.5 L-163.5 -37.0 -163.1 -37.35 Q-137.55 -58.9 -101.25 -58.9 -65.0 -58.9 -39.4 -37.35 L-37.25 -35.5 -32.35 -30.8 Q-17.65 -15.1 -13.85 8.2 -13.55 11.55 -13.55 14.95 L-13.6 18.75 -13.95 22.4 Q-16.2 35.8 -20.05 43.15 -26.4 56.35 -39.4 67.25 -65.0 88.7 -101.25 88.75 -126.7 88.7 -146.9 78.2 -155.55 73.6 -163.1 67.25 -177.5 55.25 -183.75 40.45 L-187.1 30.7 -188.55 23.0 Q-188.95 19.0 -188.95 14.95 -188.95 8.0 -187.75 1.5 M-160.2 -33.8 L-165.3 -29.2 Q-184.4 -10.5 -184.35 14.95 -184.35 43.5 -160.2 63.75 -153.0 69.8 -144.75 74.1 -125.55 84.1 -101.25 84.15 -66.75 84.1 -42.3 63.75 -18.2 43.5 -18.15 14.95 -18.2 -13.65 -42.3 -33.8 -66.75 -54.3 -101.25 -54.3 -135.8 -54.3 -160.2 -33.8" fill="#ffffff" fill-rule="evenodd" stroke="none"/>
    <path d="M-36.1 -40.5 L-36.1 -40.55 -36.1 -40.5" fill="#3333cc" fill-rule="evenodd" stroke="none"/>
    <path d="M-160.2 -33.8 Q-135.8 -54.3 -101.25 -54.3 -66.75 -54.3 -42.3 -33.8 -18.2 -13.65 -18.15 14.95 -18.2 43.5 -42.3 63.75 -66.75 84.1 -101.25 84.15 -125.55 84.1 -144.75 74.1 -153.0 69.8 -160.2 63.75 -184.35 43.5 -184.35 14.95 -184.4 -10.5 -165.3 -29.2 L-160.2 -33.8" fill="url(#gradient0)" fill-rule="evenodd" stroke="none"/>
    <path d="M-13.85 8.2 Q-17.65 -15.1 -32.35 -30.8 L-37.25 -35.5 -39.4 -37.35 Q-65.0 -58.9 -101.25 -58.9 -137.55 -58.9 -163.1 -37.35 L-163.5 -37.0 -168.5 -32.5 Q-183.05 -20.0 -187.75 1.5 -189.1 7.8 -189.1 14.6 -189.1 18.9 -188.55 23.0 L-187.1 30.7 -183.75 40.45 Q-177.5 55.25 -163.1 67.25 -155.55 73.6 -146.9 78.2 -126.7 88.7 -101.25 88.75 -65.0 88.7 -39.4 67.25 -26.4 56.35 -20.05 43.15 -16.2 35.8 -13.95 22.4 L-13.6 18.75 -13.5 14.6 Q-13.5 11.35 -13.85 8.2 M-36.1 -40.5 Q-8.85 -17.7 -8.9 14.6 -8.9 43.3 -30.4 64.55 L-36.1 69.75 Q-63.1 92.35 -101.3 92.35 -139.5 92.35 -166.45 69.75 -193.75 46.9 -193.7 14.6 -193.75 -17.7 -166.45 -40.5 -139.5 -63.15 -101.3 -63.15 -74.5 -63.15 -53.2 -52.0 -44.15 -47.35 -36.1 -40.55 L-36.1 -40.5" fill="url(#gradient1)" fill-rule="evenodd" stroke="none"/>
    <path d="M-193.5 -4.65 L-179.9 -3.85 -180.6 4.45 -191.05 3.25 -193.0 28.85 -204.0 27.95 -201.7 2.35 -212.2 1.8 -211.55 -6.5 -193.5 -4.65 M-84.85 -7.85 L-81.0 17.6 -70.55 15.6 -69.05 24.35 -90.4 27.35 -95.85 -6.05 -84.85 -7.85 M-49.95 -3.75 L-49.5 -3.75 -28.3 27.3 -37.55 33.1 -42.0 25.75 -56.35 26.9 -59.35 33.55 -68.55 28.75 Q-59.6 12.15 -49.95 -3.75 M-124.9 -4.35 L-106.0 -3.6 Q-97.05 -1.5 -96.9 5.6 -96.75 10.55 -100.95 14.7 -105.65 19.25 -113.85 20.85 L-113.55 29.25 -124.15 29.5 -124.9 -4.35 M-1.65 -2.6 Q-5.9 -1.5 -9.25 1.4 -14.95 6.25 -14.7 14.7 L-14.25 24.3 -26.4 24.6 -26.25 15.1 Q-26.4 10.3 -28.4 6.35 -30.3 2.65 -33.3 0.75 -35.7 -0.8 -39.15 -1.8 L-35.35 -12.45 Q-29.1 -10.55 -25.65 -7.3 -22.3 -4.1 -20.45 1.2 L-20.1 1.2 Q-18.75 -3.4 -14.6 -7.5 -10.85 -11.3 -5.1 -13.1 L-1.65 -2.6 M12.7 16.65 L12.9 23.85 4.95 24.0 4.8 16.85 12.7 16.65 M5.45 12.8 L3.0 -10.2 14.6 -9.95 11.9 12.15 5.45 12.8 M-156.35 15.35 Q-156.45 10.75 -158.45 8.2 -160.55 5.7 -164.0 5.75 -167.9 5.85 -170.2 9.2 -172.3 12.35 -172.2 16.95 -172.1 21.5 -169.85 24.1 -167.85 26.45 -164.65 26.4 -160.7 26.25 -158.5 23.45 -156.25 20.55 -156.35 15.35 M-163.5 -1.65 Q-155.0 -1.8 -149.9 2.5 -144.85 6.95 -144.65 14.75 -144.55 21.55 -148.85 26.85 -154.3 33.55 -165.05 33.8 -173.95 33.9 -179.15 28.8 -183.7 24.3 -183.8 17.9 -184.0 10.3 -179.0 4.8 -173.4 -1.4 -163.5 -1.65 M-113.95 14.05 Q-111.6 13.65 -109.75 11.95 -107.55 9.85 -107.65 7.15 -107.75 2.45 -114.25 2.1 L-113.95 14.05 M-53.45 19.8 L-45.4 19.15 -49.6 11.25 -53.45 19.8" fill="#000000" fill-rule="evenodd" stroke="none"/>
    <path d="M-21.4 42.7 L-23.3 74.85 -23.7 75.1 -45.75 58.45 -45.75 74.5 -54.6 74.15 -52.95 42.35 -52.5 42.15 -30.35 58.65 -30.45 42.5 -21.4 42.7 M-62.25 42.7 L-62.25 74.15 -72.55 74.15 -72.55 42.7 -62.25 42.7 M-96.35 41.15 L-77.2 70.4 -85.95 75.6 -90.0 68.75 -103.35 69.5 -106.25 75.6 -114.65 70.8 -96.8 41.15 -96.35 41.15 M-121.1 50.6 Q-126.2 51.2 -130.05 53.7 -132.3 54.9 -133.75 56.55 -135.05 58.1 -135.5 60.0 L-135.65 61.2 Q-135.65 62.55 -135.05 63.5 L-133.75 65.3 Q-132.2 66.5 -131.1 66.75 L-129.2 67.2 -127.5 67.3 -127.5 63.3 -127.5 61.6 -127.65 60.0 -118.0 60.0 -117.85 73.95 -126.7 74.85 -132.8 74.5 Q-135.65 74.05 -138.05 72.95 -140.6 71.9 -142.7 70.1 -143.9 68.8 -145.0 66.5 -146.15 64.15 -146.15 61.75 -146.15 60.2 -145.8 58.85 L-144.6 55.75 -142.95 53.0 -140.8 50.6 Q-137.6 47.5 -133.6 45.45 L-130.65 44.15 -128.85 43.45 -127.05 42.95 -123.2 41.85 -121.1 50.6 M-166.6 41.15 L-147.5 70.4 -156.2 75.6 -160.2 68.75 -173.6 69.5 -176.5 75.6 -184.9 70.8 -167.1 41.15 -166.6 41.15 M-166.95 55.0 L-170.7 62.9 -163.15 62.45 -166.95 55.0 M-96.7 55.0 L-100.5 62.9 -92.95 62.45 -96.7 55.0" fill="#000000" fill-rule="evenodd" stroke="none"/>
    <path d="M-16.3 37.8 L-18.2 69.95 -18.6 70.2 -40.7 53.55 -40.7 69.6 -49.55 69.25 -47.9 37.45 -47.45 37.25 -25.3 53.75 -25.4 37.6 -16.3 37.8 M-57.2 37.8 L-57.2 69.25 -67.5 69.25 -67.5 37.8 -57.2 37.8 M-118.15 36.95 L-116.0 45.7 Q-121.15 46.35 -125.0 48.8 -127.25 50.0 -128.65 51.7 -130.0 53.25 -130.45 55.15 L-130.55 56.35 Q-130.55 57.65 -130.0 58.65 L-128.65 60.4 Q-127.1 61.6 -126.05 61.85 L-124.15 62.3 -122.45 62.45 -122.45 58.4 -122.45 56.75 -122.6 55.15 -112.9 55.15 -112.8 69.05 -121.65 69.95 -127.75 69.6 Q-130.55 69.15 -133.0 68.05 -135.5 67.05 -137.65 65.2 -138.85 63.9 -139.95 61.6 -141.1 59.25 -141.1 56.85 -141.1 55.3 -140.75 54.0 L-139.55 50.85 -137.85 48.1 -135.75 45.7 Q-132.55 42.6 -128.55 40.6 -127.25 39.95 -125.55 39.25 L-123.8 38.55 -122.0 38.05 -118.15 36.95 M-91.3 36.25 L-72.15 65.55 -80.9 70.7 -84.9 63.85 -98.3 64.6 -101.2 70.7 -109.6 65.95 -91.75 36.25 -91.3 36.25 M-161.55 36.25 L-142.4 65.55 -151.15 70.7 -155.1 63.85 -168.5 64.6 -171.45 70.7 -179.85 65.95 -162.0 36.25 -161.55 36.25 M-158.1 57.55 L-161.9 50.1 -165.65 58.0 -158.1 57.55 M-87.9 57.55 L-91.65 50.1 -95.45 58.0 -87.9 57.55" fill="#ffcc00" fill-rule="evenodd" stroke="none"/>
    <path d="M-158.65 -37.7 Q-163.0 -36.2 -165.0 -33.75 -166.9 -31.6 -166.6 -29.0 -166.4 -27.05 -164.5 -25.95 -162.6 -24.85 -159.7 -25.35 L-156.85 -25.85 -155.9 -19.85 -159.4 -19.1 Q-166.1 -18.1 -170.05 -20.9 -173.35 -23.25 -173.75 -27.15 -174.3 -31.65 -171.15 -36.1 -167.6 -41.15 -160.6 -43.85 L-158.65 -37.7 M-155.05 -39.25 L-149.45 -39.45 -149.4 -25.15 -144.1 -25.45 -144.0 -20.5 -154.75 -20.45 -155.05 -39.25 M-88.1 -43.55 L-88.1 -35.0 -80.75 -35.85 -80.75 -37.15 -80.95 -43.7 -74.35 -43.95 -74.05 -21.5 -80.65 -21.3 -80.65 -28.1 -80.65 -30.5 -88.0 -29.65 -87.75 -21.1 -94.3 -20.9 -94.75 -43.3 -88.1 -43.55 M-62.2 -32.9 L-62.45 -28.65 -66.75 -29.1 -66.9 -25.95 -61.65 -25.55 -61.85 -21.05 -72.5 -22.15 -71.05 -40.95 -60.9 -40.6 -61.1 -36.2 -66.15 -36.45 -66.45 -32.95 -62.2 -32.9 M-58.55 -43.05 Q-52.6 -43.25 -49.9 -42.9 -44.45 -42.25 -44.35 -38.6 -44.4 -35.7 -47.35 -33.25 L-42.35 -27.45 -46.6 -23.7 -52.6 -33.15 Q-49.9 -35.05 -49.9 -37.1 -50.0 -39.6 -53.3 -39.45 L-52.9 -24.35 -58.25 -24.2 -58.55 -43.05 M-134.15 -26.55 Q-134.2 -30.15 -131.4 -33.25 -128.3 -37.0 -122.6 -38.55 L-121.4 -33.5 Q-124.95 -32.65 -126.75 -30.85 -128.4 -29.3 -128.4 -27.3 -128.3 -25.7 -126.95 -24.7 -125.5 -23.7 -123.2 -23.8 L-120.9 -23.95 -120.6 -19.1 -123.4 -18.85 Q-128.75 -18.65 -131.7 -21.2 -134.1 -23.35 -134.15 -26.55 M-142.5 -38.2 L-136.95 -38.35 -136.65 -19.55 -142.15 -19.35 -142.5 -38.2 M-107.65 -41.2 L-103.65 -37.45 -108.55 -31.5 -103.25 -25.45 -107.35 -21.3 -113.75 -30.45 -113.85 -30.45 -113.55 -21.45 -119.1 -21.3 -119.45 -40.65 -113.9 -40.8 -113.9 -32.1 -113.85 -32.1 -107.65 -41.2 M-35.35 -26.25 L-30.05 -26.4 -29.9 -21.85 -40.5 -21.8 -40.85 -40.65 -30.6 -41.45 -30.45 -37.1 -35.5 -36.75 -35.5 -33.25 -31.2 -33.65 -31.1 -29.45 -35.4 -29.35 -35.35 -26.25" fill="#000000" fill-rule="evenodd" stroke="none"/>
    <path d="M-207.55 -10.6 L-189.5 -8.75 -175.95 -7.95 -176.65 0.4 -187.1 -0.8 -189.05 24.75 -200.05 23.85 -197.75 -1.75 -208.25 -2.25 -207.55 -10.6 M-80.9 -11.9 L-77.05 13.5 -66.55 11.55 -65.1 20.3 -86.4 23.25 -91.85 -10.15 -80.9 -11.9 M-46.0 -7.85 L-45.55 -7.85 -24.3 23.2 -33.55 29.0 -38.05 21.65 -52.35 22.8 -55.35 29.5 -64.55 24.65 Q-55.65 8.1 -46.0 -7.85 M-120.9 -8.4 L-102.05 -7.65 Q-93.1 -5.6 -92.9 1.55 -92.8 6.5 -97.0 10.6 -101.7 15.15 -109.85 16.75 L-109.6 25.15 -120.15 25.4 -120.9 -8.4 M-1.15 -17.2 L2.3 -6.7 Q-1.95 -5.6 -5.3 -2.65 -10.95 2.15 -10.75 10.6 L-10.3 20.2 -22.4 20.5 -22.3 11.0 Q-22.4 6.2 -24.45 2.3 -26.3 -1.45 -29.3 -3.35 -31.75 -4.9 -35.2 -5.9 L-31.4 -16.5 Q-25.1 -14.6 -21.65 -11.4 -18.35 -8.2 -16.5 -2.9 L-16.15 -2.9 Q-14.75 -7.5 -10.65 -11.55 -6.9 -15.35 -1.15 -17.2 M8.75 12.75 L16.7 12.6 16.85 19.75 8.9 19.95 8.75 12.75 M-160.0 1.65 Q-163.9 1.75 -166.2 5.1 -168.35 8.25 -168.25 12.85 -168.1 17.4 -165.9 20.0 -163.85 22.35 -160.7 22.3 -156.75 22.2 -154.55 19.35 -152.3 16.5 -152.35 11.25 -152.5 6.65 -154.5 4.1 -156.55 1.6 -160.0 1.65 M-140.7 10.7 Q-140.6 17.45 -144.9 22.75 -150.35 29.5 -161.1 29.7 -169.95 29.85 -175.2 24.7 -179.75 20.2 -179.85 13.85 -180.0 6.2 -175.0 0.75 -169.45 -5.5 -159.55 -5.7 -151.05 -5.9 -145.9 -1.55 -140.85 2.85 -140.7 10.7 M-110.25 -1.95 L-110.0 10.0 Q-107.65 9.6 -105.8 7.85 -103.6 5.8 -103.65 3.1 -103.8 -1.65 -110.25 -1.95 M-49.5 15.75 L-41.45 15.05 -45.65 7.15 -49.5 15.75 M9.45 8.7 L6.95 -14.25 18.6 -14.05 15.9 8.1 9.45 8.7" fill="#ffcc00" fill-rule="evenodd" stroke="none"/>
  </g>
  <defs>
    <radialGradient cx="0" cy="0" gradientTransform="matrix(0.1327, 0.0, 0.0, 0.1327, -121.85, -5.65)" gradientUnits="userSpaceOnUse" id="gradient0" r="819.2" spreadMethod="pad">
      <stop offset="0.0" stop-color="#b6ded9"/>
      <stop offset="1.0" stop-color="#487882"/>
    </radialGradient>
    <linearGradient gradientTransform="matrix(0.1128, 0.0, 0.0, 0.0949, -101.3, 14.6)" gradientUnits="userSpaceOnUse" id="gradient1" spreadMethod="pad" x1="-819.2" x2="819.2">
      <stop offset="0.0" stop-color="#619eb8"/>
      <stop offset="1.0" stop-color="#272e43"/>
    </linearGradient>
  </defs>
</svg>
