<?xml version="1.0" encoding="UTF-8" standalone="no"?>
<svg xmlns:ffdec="https://www.free-decompiler.com/flash" xmlns:xlink="http://www.w3.org/1999/xlink" ffdec:objectType="shape" height="276.2px" width="318.45px" xmlns="http://www.w3.org/2000/svg">
  <g transform="matrix(1.0, 0.0, 0.0, 1.0, 159.2, 138.1)">
    <path d="M-18.55 -132.3 L-18.5 -132.3 -18.4 -134.2 Q-12.6 -133.55 1.05 -134.15 L1.05 -134.05 1.5 -134.05 1.55 -122.65 Q1.7 -91.15 3.15 -60.75 L3.3 -57.4 3.2 -57.4 Q1.85 -57.4 0.3 -56.5 L-1.0 -55.7 -1.0 -54.55 -2.45 -54.35 Q-3.4 -74.65 -3.5 -115.1 L-3.5 -118.8 -3.5 -118.85 -3.5 -121.4 -3.5 -121.8 Q-3.75 -121.85 -4.05 -119.05 L-4.5 -115.15 Q-5.2 -108.5 -5.05 -94.9 L-5.0 -83.15 Q-5.0 -73.5 -4.45 -54.0 L-6.2 -53.5 -6.2 -53.85 -6.5 -40.85 Q-7.2 -40.0 -11.8 -39.8 -12.15 -53.15 -11.9 -64.05 L-11.65 -76.2 -11.4 -82.75 Q-11.0 -90.25 -12.2 -97.65 L-12.6 -99.1 -12.6 -97.65 -14.0 -40.2 Q-16.95 -40.3 -19.0 -41.75 -20.1 -75.35 -19.85 -96.4 -19.65 -116.3 -18.55 -132.3 M-3.2 -116.65 L-3.25 -117.7 -3.35 -118.85 -3.2 -116.65" fill="url(#gradient0)" fill-rule="evenodd" stroke="none"/>
    <path d="M158.5 131.4 L158.5 133.55 Q97.55 134.7 63.1 134.15 L38.85 134.05 Q16.1 133.95 1.25 134.4 -9.25 140.1 -17.6 137.05 -20.9 135.85 -23.85 133.25 L-24.45 103.55 Q-31.0 105.05 -65.25 121.6 -82.1 117.0 -87.15 114.9 L-89.05 111.55 -92.15 113.5 -151.55 97.35 -152.15 80.95 -158.1 79.3 -159.2 71.5 -132.7 65.45 -132.05 56.05 -135.85 55.3 -136.25 48.25 -104.4 43.35 -104.4 35.15 -108.95 34.15 -108.5 26.65 -80.2 21.95 -79.9 14.5 -83.5 14.05 Q-83.8 8.45 -83.45 6.55 -71.25 5.15 -58.8 2.35 -57.75 1.4 -54.05 -2.95 L-54.05 -5.45 -56.6 -5.9 -56.75 -12.65 -43.2 -16.0 -37.7 -21.4 -35.6 -23.6 -35.55 -26.8 -38.85 -27.5 Q-39.25 -32.45 -39.1 -33.1 L-24.05 -37.3 -23.75 -40.75 -21.75 -41.3 -21.95 -55.65 Q-22.35 -92.3 -22.25 -126.3 L-22.15 -134.2 -18.4 -134.2 -18.55 -132.3 Q-19.65 -116.3 -19.85 -96.4 -20.1 -75.35 -19.0 -41.75 -16.95 -40.3 -14.0 -40.2 L-12.6 -97.65 -12.2 -97.65 Q-11.0 -90.25 -11.4 -82.75 L-11.65 -76.2 -11.9 -64.05 Q-12.15 -53.15 -11.8 -39.8 -7.2 -40.0 -6.5 -40.85 L-6.2 -53.85 -6.2 -53.5 -4.45 -54.0 Q-5.0 -73.5 -5.0 -83.15 L-5.05 -94.9 Q-5.2 -108.5 -4.5 -115.15 L-3.5 -115.1 Q-3.4 -74.65 -2.45 -54.35 L-1.0 -54.55 -1.0 -55.7 0.3 -56.5 0.75 -55.6 Q-1.2 -54.75 3.2 -54.65 L4.0 -54.65 Q9.35 -54.65 8.6 -55.4 L9.05 -56.15 10.3 -55.05 10.3 -52.9 Q11.9 -53.0 17.7 -55.0 24.6 -51.65 29.5 -50.3 L36.25 -48.7 36.55 -47.3 35.95 -46.9 32.15 -43.65 Q27.2 -42.6 19.5 -41.9 L20.6 -36.55 21.85 -35.55 21.85 -31.85 Q24.0 -31.35 25.6 -29.9 L27.35 -27.65 Q29.3 -24.35 29.1 -15.4 28.85 -6.45 28.9 3.1 L28.65 17.0 Q28.4 21.35 22.7 23.3 13.85 26.4 2.4 22.7 L1.0 131.4 71.95 131.25 88.35 131.05 91.5 131.0 Q111.0 130.2 130.15 130.4 L158.5 130.9 158.5 131.4 M-3.75 -51.4 L1.15 -44.5 1.15 -50.55 Q0.05 -50.6 -0.85 -51.35 L-0.9 -52.6 Q-3.4 -52.8 -3.75 -51.4 M-19.55 -39.95 Q-21.55 -39.8 -22.1 -39.35 -22.35 -31.25 -22.0 -22.5 -19.85 -21.45 -17.6 -20.85 -11.2 -19.2 -4.3 -21.1 L-6.25 -22.6 -6.45 -38.5 Q-12.6 -37.0 -19.55 -39.95 M8.7 -45.1 L14.55 -43.9 Q23.15 -42.75 31.15 -45.1 18.3 -45.95 8.7 -48.95 L8.7 -45.1 M6.35 -31.95 L6.5 -34.9 -3.3 -47.9 -3.3 -24.25 -1.0 -23.6 Q-0.9 -28.05 1.5 -29.9 L1.6 -29.95 Q2.2 -30.4 3.3 -30.85 4.5 -31.4 6.35 -31.95 M14.15 -40.6 Q9.2 -43.55 9.3 -39.7 9.4 -36.9 11.35 -37.0 11.3 -40.75 14.15 -40.6 M17.0 -39.65 L16.75 -39.75 15.8 -39.65 16.05 -37.3 17.05 -37.5 17.3 -39.0 Q17.35 -39.5 17.0 -39.65 M16.45 -41.85 Q17.6 -41.6 16.85 -40.55 L17.15 -40.5 Q17.9 -40.45 18.5 -40.0 L18.5 -41.9 18.5 -42.0 18.5 -42.25 14.35 -42.9 10.6 -43.45 10.0 -43.0 Q11.55 -43.5 14.55 -41.5 L16.45 -41.85 M9.45 -34.05 L9.6 -32.05 Q13.7 -30.7 18.95 -32.05 L18.95 -34.55 Q14.6 -33.05 9.45 -34.05 M32.0 -46.1 L34.75 -47.65 Q25.2 -49.45 17.7 -53.3 14.0 -52.35 8.85 -50.05 18.2 -47.25 31.25 -46.15 L32.0 -46.1 M14.35 -39.6 Q12.55 -39.15 12.8 -37.2 14.65 -38.25 14.35 -39.6 M0.8 4.4 L0.8 14.75 Q1.15 17.25 2.55 18.9 4.65 21.5 9.3 22.0 16.85 22.75 21.9 21.15 26.9 19.45 26.4 13.15 L26.4 5.0 Q15.85 9.45 2.85 5.1 L0.95 4.4 0.9 4.4 0.8 4.35 0.8 4.4 M20.85 -30.3 L20.0 -29.9 Q15.15 -27.95 8.1 -29.9 L7.75 -30.0 7.0 -29.9 Q4.6 -29.45 3.3 -27.5 0.9 -24.05 1.8 -15.8 L3.2 -15.15 4.65 -14.45 Q14.6 -10.05 25.8 -14.05 L26.0 -23.85 Q26.0 -28.2 22.0 -29.9 L20.85 -30.3 M26.0 2.2 L26.0 -11.3 Q13.6 -7.55 3.15 -12.2 L2.05 -12.7 2.05 1.6 2.95 2.1 Q12.55 7.2 26.0 2.2 M-11.85 -17.15 L-14.4 -17.4 Q-15.6 -14.85 -16.05 -3.2 -17.15 -11.3 -16.5 -18.0 L-17.6 -18.35 -19.0 -18.8 Q-20.6 10.95 -20.4 29.85 -20.2 48.7 -21.0 64.0 -21.75 77.9 -21.25 130.55 -19.4 131.85 -17.6 132.75 -10.05 136.35 -3.3 132.0 L-2.7 124.4 Q-1.85 107.95 -1.45 85.35 -1.1 62.75 -0.05 45.5 0.95 28.2 0.95 21.5 -1.75 18.85 -1.65 15.45 -1.6 -9.6 -1.35 -18.2 L-8.85 -16.9 -9.0 -11.2 -9.8 11.5 Q-10.4 24.9 -12.0 38.1 -11.45 -0.25 -11.85 -17.15 M-22.6 5.4 L-22.75 -1.2 -41.8 -3.15 -46.8 2.3 -22.6 5.4 M-22.8 13.85 L-22.8 8.05 -48.9 5.25 -53.25 9.95 -22.8 13.85 M-24.15 -35.75 L-34.85 -32.25 -27.8 -30.9 -24.35 -33.6 -24.15 -35.75 M-133.2 50.25 L-133.2 53.65 -68.35 64.9 -68.15 62.0 -133.2 50.25 M-106.35 28.35 L-106.35 32.2 -87.1 35.15 Q-87.1 32.75 -86.3 31.95 L-106.35 28.35 M-23.3 -19.95 L-24.15 -20.8 -24.15 -22.85 -30.0 -16.4 -23.3 -15.4 -23.3 -19.95 M-129.6 56.3 L-129.6 65.65 -68.4 78.15 -68.2 67.7 -129.6 56.3 M-30.75 -28.15 L-29.0 -29.5 -37.35 -31.35 -37.0 -29.45 -30.75 -28.15 M-24.2 -26.4 L-24.2 -30.65 Q-34.9 -21.3 -41.5 -13.5 -48.1 -5.75 -60.65 7.65 -58.55 8.4 -58.55 11.35 L-24.2 -26.4 M-23.25 -12.9 L-31.95 -14.25 -35.25 -10.65 -23.25 -9.25 Q-23.0 -10.1 -23.25 -12.9 M-47.75 -9.8 L-54.5 -11.2 -54.5 -7.8 -50.55 -7.15 -47.75 -9.8 M-23.0 -7.45 L-36.45 -8.9 -39.5 -5.75 -22.8 -3.9 -23.0 -7.45 M-44.0 -14.65 L-51.55 -12.7 -46.5 -11.65 -44.0 -14.65 M-56.0 12.7 L-57.05 14.15 -22.9 19.9 -22.95 16.05 -56.0 12.7 M-59.55 12.65 Q-60.1 9.3 -62.75 9.15 -65.0 9.15 -67.85 13.6 -64.5 14.6 -63.95 18.7 -58.95 15.95 -59.55 12.65 M-62.5 6.95 L-60.2 4.25 -77.95 7.45 Q-73.4 7.65 -66.1 8.8 -65.0 7.25 -62.5 6.95 M-68.2 10.85 L-80.9 9.75 -80.9 11.65 -69.85 13.1 -68.2 10.85 M-71.4 15.65 L-77.3 14.75 -77.3 21.95 -71.4 15.65 M-81.55 36.85 Q-81.05 36.1 -81.0 35.25 -80.8 32.2 -83.75 32.25 L-83.8 32.3 -84.1 32.45 -84.25 32.5 Q-85.55 34.05 -84.95 36.15 -84.3 38.3 -82.0 37.4 L-81.55 36.85 M-63.7 20.45 L-65.85 23.2 Q-64.1 24.85 -62.25 23.6 L-62.25 20.1 -63.7 20.45 M-81.75 30.8 Q-79.95 31.35 -79.2 34.2 -71.85 27.6 -66.1 19.8 -66.4 17.7 -68.9 16.0 L-81.75 30.8 M-75.25 33.9 L-77.05 35.85 -67.95 37.75 -67.95 35.0 -75.25 33.9 M-72.9 31.95 L-68.4 32.55 -68.55 25.95 -72.9 31.95 M-68.05 40.4 L-79.5 38.4 Q-84.3 41.0 -86.75 37.65 L-101.85 35.55 -101.85 43.55 -67.9 49.55 -68.05 40.4 M-68.05 59.5 L-68.05 52.35 Q-82.35 49.1 -102.85 45.3 L-127.4 49.05 -68.05 59.5 M-100.9 27.35 Q-96.05 27.95 -84.4 30.25 L-79.15 24.05 -100.9 27.35 M-23.3 30.4 L-23.05 21.7 -58.65 17.2 -60.3 19.3 -60.0 24.65 -50.95 26.15 -23.3 30.4 M-28.3 39.35 L-23.3 37.6 -23.3 33.0 -60.25 27.0 -60.45 33.25 -28.3 39.35 M-47.95 66.1 L-60.4 63.4 -60.4 66.1 -47.95 69.05 -47.95 66.1 M-60.45 36.6 L-60.45 39.05 -29.5 45.2 -29.5 42.15 -60.45 36.6 M-23.3 40.45 L-26.6 41.9 -26.6 44.8 -23.3 43.45 -23.3 40.45 M-60.45 52.95 L-60.6 61.05 -46.05 64.65 -31.6 58.95 -60.45 52.95 M-25.7 56.3 L-25.7 48.85 -60.35 41.85 -60.45 50.55 -25.7 56.3 M-23.45 63.95 L-25.35 64.2 Q-32.6 66.95 -39.65 70.15 L-41.05 89.15 Q-57.75 97.55 -63.35 100.05 L-63.35 118.05 Q-42.45 107.85 -24.3 100.75 L-24.3 100.7 Q-24.6 93.65 -23.45 63.95 M-26.15 61.85 L-25.9 59.2 -45.15 65.95 -45.15 69.0 -26.15 61.85 M-62.15 26.15 Q-63.45 27.1 -65.95 26.15 L-65.9 80.85 Q-64.1 82.0 -62.3 80.85 -61.8 59.2 -62.15 26.15 M-42.75 81.75 L-42.75 71.0 -46.5 72.45 -60.55 69.2 -60.45 79.35 -42.75 81.75 M-61.45 86.2 Q-60.6 84.55 -61.1 81.9 -63.55 84.25 -67.15 81.9 L-67.15 85.4 -65.8 86.1 -61.45 86.2 M-59.2 82.05 Q-59.0 83.75 -59.95 87.5 -65.85 90.8 -70.05 84.75 L-70.15 80.2 -133.25 68.1 -151.85 72.35 Q-115.35 79.9 -82.2 88.4 L-79.15 89.2 -68.0 91.9 -65.55 91.75 Q-63.8 91.2 -60.95 89.85 L-47.3 83.95 -59.2 82.05 M-43.4 87.75 L-43.4 84.6 -65.55 95.2 -65.55 98.8 -43.4 87.75 M-88.25 109.5 L-86.55 112.45 -67.45 118.25 -66.5 101.4 -68.55 102.4 -149.05 81.75 -148.6 95.25 -93.25 110.9 -88.25 109.5 M-71.35 98.35 L-69.05 99.1 -68.6 94.55 -93.35 87.95 Q-100.4 86.0 -106.85 84.8 L-121.0 81.9 Q-138.35 78.3 -155.45 74.05 L-154.85 78.1 -71.35 98.35" fill="#241200" fill-rule="evenodd" stroke="none"/>
    <path d="M1.5 -134.05 L1.05 -134.05 1.5 -134.2 1.5 -134.05" fill="url(#gradient1)" fill-rule="evenodd" stroke="none"/>
    <path d="M31.5 -135.0 L31.7 -138.1 31.85 -135.0 32.4 -110.35 32.55 -83.75 Q32.6 -70.75 31.3 -57.85 L29.8 -99.45 Q29.6 -103.45 31.5 -135.0 M-12.6 -97.65 L-12.6 -99.1 -12.2 -97.65 -12.6 -97.65 M-4.5 -115.15 L-4.05 -119.05 Q-3.75 -121.85 -3.5 -121.8 L-3.5 -121.4 -3.5 -118.85 -3.5 -118.8 -3.5 -115.1 -4.5 -115.15 M0.3 -56.5 Q1.85 -57.4 3.2 -57.4 L3.3 -57.4 3.15 -60.75 Q1.7 -91.15 1.55 -122.65 L1.5 -134.05 1.5 -134.2 4.35 -134.2 4.1 -131.55 Q3.85 -129.7 3.75 -119.25 3.7 -108.85 3.8 -102.5 L4.25 -72.75 4.3 -72.75 4.55 -57.45 Q7.05 -57.55 9.05 -56.15 L8.6 -55.4 Q7.8 -56.25 5.35 -56.35 L3.35 -56.3 3.2 -56.3 0.75 -55.6 0.3 -56.5 M139.7 -77.6 L139.7 -20.95 138.25 -29.9 Q135.8 -46.5 136.65 -56.55 137.75 -69.55 139.1 -75.65 L139.7 -77.6 M149.65 -45.3 L149.6 -29.9 149.25 -18.5 Q148.75 -5.7 148.75 7.2 148.75 19.7 149.65 32.15 150.7 47.35 146.9 65.4 L146.25 55.5 Q145.9 48.3 145.85 41.15 L145.65 19.5 Q145.6 9.1 146.2 -1.35 147.05 -15.3 147.15 -29.3 L147.15 -29.9 Q147.3 -47.95 147.9 -66.0 148.45 -81.9 148.55 -97.75 149.5 -84.55 149.5 -72.0 L149.65 -45.3 M119.95 -106.0 Q120.0 -78.3 119.6 -50.8 L119.4 -30.9 119.4 -29.9 119.4 -6.7 Q119.4 4.15 119.95 14.85 120.65 29.15 120.0 43.45 L119.55 53.45 Q117.35 26.4 117.3 1.3 L117.25 -29.9 117.25 -31.2 Q117.25 -47.0 117.9 -62.85 L118.9 -96.75 Q118.95 -99.35 119.95 -106.0 M85.9 -101.95 Q87.25 -82.85 87.4 -63.75 L87.15 -40.75 Q87.05 -36.35 86.6 -31.85 L86.4 -29.9 Q84.8 -12.8 86.4 4.4 87.6 17.3 85.85 30.05 L85.5 31.4 Q82.45 15.0 83.05 -1.85 L83.75 -28.35 83.75 -29.9 Q83.65 -33.45 82.7 -37.0 81.05 -43.1 82.65 -49.2 83.45 -52.35 84.8 -41.55 84.6 -79.7 85.45 -101.15 L85.9 -101.95 M56.75 -119.25 Q57.75 -88.2 57.25 -57.3 57.05 -43.65 57.35 -29.9 57.4 -24.75 57.6 -19.55 59.2 27.9 55.65 78.65 L54.9 54.0 54.75 50.45 Q54.15 36.55 55.15 22.6 56.15 8.8 55.7 -5.05 55.3 -16.1 55.25 -27.25 L55.25 -29.9 55.1 -55.15 55.1 -77.95 54.8 -93.7 Q54.3 -106.7 56.75 -119.25 M-3.2 -116.65 L-3.35 -118.85 -3.25 -117.7 -3.2 -116.65 M-0.15 -33.05 Q-2.15 -34.2 -1.55 -36.2 -0.8 -38.65 1.35 -37.9 3.4 -37.15 2.65 -34.5 1.85 -31.9 -0.15 -33.05 M-4.65 64.0 Q-5.5 76.25 -6.75 83.45 -5.0 64.15 -5.3 53.05 -5.65 41.95 -4.75 34.8 -3.85 51.75 -4.65 64.0 M92.25 -12.4 L91.9 -11.15 92.05 -29.9 92.45 -61.7 Q95.1 -48.5 94.0 -29.9 93.45 -21.7 92.25 -12.4 M30.25 18.75 Q31.8 38.7 30.25 68.05 28.5 27.5 30.25 18.75" fill="#000000" fill-rule="evenodd" stroke="none"/>
    <path d="M1.05 -134.15 L1.5 -134.2 1.05 -134.05 1.05 -134.15" fill="url(#gradient2)" fill-rule="evenodd" stroke="none"/>
    <path d="M1.5 -134.2 L4.35 -134.25 4.35 -134.2 1.5 -134.2" fill="url(#gradient3)" fill-rule="evenodd" stroke="none"/>
    <path d="M4.35 -134.25 L31.5 -135.0 Q29.6 -103.45 29.8 -99.45 L31.3 -57.85 Q32.6 -70.75 32.55 -83.75 L32.4 -110.35 31.85 -135.0 159.25 -135.0 159.25 130.9 158.5 130.9 130.15 130.4 Q111.0 130.2 91.5 131.0 L88.35 131.05 71.95 131.25 1.0 131.4 2.4 22.7 Q13.85 26.4 22.7 23.3 28.4 21.35 28.65 17.0 L28.9 3.1 Q28.85 -6.45 29.1 -15.4 29.3 -24.35 27.35 -27.65 L25.6 -29.9 Q24.0 -31.35 21.85 -31.85 L21.85 -35.55 20.6 -36.55 19.5 -41.9 Q27.2 -42.6 32.15 -43.65 L35.95 -46.9 36.55 -47.3 36.25 -48.7 29.5 -50.3 Q24.6 -51.65 17.7 -55.0 11.9 -53.0 10.3 -52.9 L10.3 -55.05 9.05 -56.15 Q7.05 -57.55 4.55 -57.45 L4.3 -72.75 4.25 -72.75 3.8 -102.5 Q3.7 -108.85 3.75 -119.25 3.85 -129.7 4.1 -131.55 L4.35 -134.2 4.35 -134.25 M56.75 -119.25 Q54.3 -106.7 54.8 -93.7 L55.1 -77.95 55.1 -55.15 55.25 -29.9 55.25 -27.25 Q55.3 -16.1 55.7 -5.05 56.15 8.8 55.15 22.6 54.15 36.55 54.75 50.45 L54.9 54.0 55.65 78.65 Q59.2 27.9 57.6 -19.55 57.4 -24.75 57.35 -29.9 57.05 -43.65 57.25 -57.3 57.75 -88.2 56.75 -119.25 M85.9 -101.95 L85.45 -101.15 Q84.6 -79.7 84.8 -41.55 83.45 -52.35 82.65 -49.2 81.05 -43.1 82.7 -37.0 83.65 -33.45 83.75 -29.9 L83.75 -28.35 83.05 -1.85 Q82.45 15.0 85.5 31.4 L85.85 30.05 Q87.6 17.3 86.4 4.4 84.8 -12.8 86.4 -29.9 L86.6 -31.85 Q87.05 -36.35 87.15 -40.75 L87.4 -63.75 Q87.25 -82.85 85.9 -101.95 M119.95 -106.0 Q118.95 -99.35 118.9 -96.75 L117.9 -62.85 Q117.25 -47.0 117.25 -31.2 L117.25 -29.9 117.3 1.3 Q117.35 26.4 119.55 53.45 L120.0 43.45 Q120.65 29.15 119.95 14.85 119.4 4.15 119.4 -6.7 L119.4 -29.9 119.4 -30.9 119.6 -50.8 Q120.0 -78.3 119.95 -106.0 M149.65 -45.3 L149.5 -72.0 Q149.5 -84.55 148.55 -97.75 148.45 -81.9 147.9 -66.0 147.3 -47.95 147.15 -29.9 L147.15 -29.3 Q147.05 -15.3 146.2 -1.35 145.6 9.1 145.65 19.5 L145.85 41.15 Q145.9 48.3 146.25 55.5 L146.9 65.4 Q150.7 47.35 149.65 32.15 148.75 19.7 148.75 7.2 148.75 -5.7 149.25 -18.5 L149.6 -29.9 149.65 -45.3 M139.7 -77.6 L139.1 -75.65 Q137.75 -69.55 136.65 -56.55 135.8 -46.5 138.25 -29.9 L139.7 -20.95 139.7 -77.6 M92.25 -12.4 Q93.45 -21.7 94.0 -29.9 95.1 -48.5 92.45 -61.7 L92.05 -29.9 91.9 -11.15 92.25 -12.4 M30.25 18.75 Q28.5 27.5 30.25 68.05 31.8 38.7 30.25 18.75" fill="url(#gradient4)" fill-rule="evenodd" stroke="none"/>
    <path d="M0.75 -55.6 L3.2 -56.3 3.35 -56.3 5.35 -56.35 Q7.8 -56.25 8.6 -55.4 9.35 -54.65 4.0 -54.65 L3.2 -54.65 Q-1.2 -54.75 0.75 -55.6 M-3.75 -51.4 Q-3.4 -52.8 -0.9 -52.6 L-0.85 -51.35 Q0.05 -50.6 1.15 -50.55 L1.15 -44.5 -3.75 -51.4 M16.45 -41.85 L14.55 -41.5 Q11.55 -43.5 10.0 -43.0 L10.6 -43.45 14.35 -42.9 18.5 -42.25 18.5 -42.0 18.5 -41.9 18.5 -40.0 Q17.9 -40.45 17.15 -40.5 L16.85 -40.55 Q17.6 -41.6 16.45 -41.85 M17.0 -39.65 Q17.35 -39.5 17.3 -39.0 L17.05 -37.5 16.05 -37.3 15.8 -39.65 16.75 -39.75 17.0 -39.65 M14.15 -40.6 Q11.3 -40.75 11.35 -37.0 9.4 -36.9 9.3 -39.7 9.2 -43.55 14.15 -40.6 M14.35 -39.6 Q14.65 -38.25 12.8 -37.2 12.55 -39.15 14.35 -39.6 M32.0 -46.1 L31.25 -46.15 Q18.2 -47.25 8.85 -50.05 14.0 -52.35 17.7 -53.3 25.2 -49.45 34.75 -47.65 L32.0 -46.1 M-59.55 12.65 Q-58.95 15.95 -63.95 18.7 -64.5 14.6 -67.85 13.6 -65.0 9.15 -62.75 9.15 -60.1 9.3 -59.55 12.65 M-63.7 20.45 L-62.25 20.1 -62.25 23.6 Q-64.1 24.85 -65.85 23.2 L-63.7 20.45 M-81.55 36.85 L-82.0 37.4 Q-84.3 38.3 -84.95 36.15 -85.55 34.05 -84.25 32.5 L-84.1 32.45 -83.8 32.3 -83.75 32.25 Q-80.8 32.2 -81.0 35.25 -81.05 36.1 -81.55 36.85 M-61.45 86.2 L-65.8 86.1 -67.15 85.4 -67.15 81.9 Q-63.55 84.25 -61.1 81.9 -60.6 84.55 -61.45 86.2" fill="#9999cc" fill-rule="evenodd" stroke="none"/>
    <path d="M-19.55 -39.95 Q-12.6 -37.0 -6.45 -38.5 L-6.25 -22.6 -4.3 -21.1 Q-11.2 -19.2 -17.6 -20.85 -19.85 -21.45 -22.0 -22.5 -22.35 -31.25 -22.1 -39.35 -21.55 -39.8 -19.55 -39.95" fill="url(#gradient5)" fill-rule="evenodd" stroke="none"/>
    <path d="M8.7 -45.1 L8.7 -48.95 Q18.3 -45.95 31.15 -45.1 23.15 -42.75 14.55 -43.9 L8.7 -45.1 M-0.15 -33.05 Q1.85 -31.9 2.65 -34.5 3.4 -37.15 1.35 -37.9 -0.8 -38.65 -1.55 -36.2 -2.15 -34.2 -0.15 -33.05 M6.35 -31.95 Q4.5 -31.4 3.3 -30.85 2.2 -30.4 1.6 -29.95 L1.5 -29.9 Q-0.9 -28.05 -1.0 -23.6 L-3.3 -24.25 -3.3 -47.9 6.5 -34.9 6.35 -31.95 M9.45 -34.05 Q14.6 -33.05 18.95 -34.55 L18.95 -32.05 Q13.7 -30.7 9.6 -32.05 L9.45 -34.05 M-24.2 -26.4 L-58.55 11.35 Q-58.55 8.4 -60.65 7.65 -48.1 -5.75 -41.5 -13.5 -34.9 -21.3 -24.2 -30.65 L-24.2 -26.4 M-81.75 30.8 L-68.9 16.0 Q-66.4 17.7 -66.1 19.8 -71.85 27.6 -79.2 34.2 -79.95 31.35 -81.75 30.8 M-62.15 26.15 Q-61.8 59.2 -62.3 80.85 -64.1 82.0 -65.9 80.85 L-65.95 26.15 Q-63.45 27.1 -62.15 26.15" fill="#99ccff" fill-rule="evenodd" stroke="none"/>
    <path d="M20.85 -30.3 L22.0 -29.9 Q26.0 -28.2 26.0 -23.85 L25.8 -14.05 Q14.6 -10.05 4.65 -14.45 L3.2 -15.15 1.8 -15.8 Q0.9 -24.05 3.3 -27.5 4.6 -29.45 7.0 -29.9 L7.75 -30.0 8.1 -29.9 Q15.15 -27.95 20.0 -29.9 L20.85 -30.3 M0.95 4.4 L2.85 5.1 Q15.85 9.45 26.4 5.0 L26.4 13.15 Q26.9 19.45 21.9 21.15 16.85 22.75 9.3 22.0 4.65 21.5 2.55 18.9 1.15 17.25 0.8 14.75 L0.8 4.4 0.95 4.4" fill="url(#gradient6)" fill-rule="evenodd" stroke="none"/>
    <path d="M26.0 2.2 Q12.55 7.2 2.95 2.1 L2.05 1.6 2.05 -12.7 3.15 -12.2 Q13.6 -7.55 26.0 -11.3 L26.0 2.2" fill="url(#gradient7)" fill-rule="evenodd" stroke="none"/>
    <path d="M-11.85 -17.15 Q-11.45 -0.25 -12.0 38.1 -10.4 24.9 -9.8 11.5 L-9.0 -11.2 -8.85 -16.9 -1.35 -18.2 Q-1.6 -9.6 -1.65 15.45 -1.75 18.85 0.95 21.5 0.95 28.2 -0.05 45.5 -1.1 62.75 -1.45 85.35 -1.85 107.95 -2.7 124.4 L-3.3 132.0 Q-10.05 136.35 -17.6 132.75 -19.4 131.85 -21.25 130.55 -21.75 77.9 -21.0 64.0 -20.2 48.7 -20.4 29.85 -20.6 10.95 -19.0 -18.8 L-17.6 -18.35 -16.5 -18.0 Q-17.15 -11.3 -16.05 -3.2 -15.6 -14.85 -14.4 -17.4 L-11.85 -17.15 M-4.65 64.0 Q-3.85 51.75 -4.75 34.8 -5.65 41.95 -5.3 53.05 -5.0 64.15 -6.75 83.45 -5.5 76.25 -4.65 64.0" fill="url(#gradient8)" fill-rule="evenodd" stroke="none"/>
    <path d="M-22.6 5.4 L-46.8 2.3 -41.8 -3.15 -22.75 -1.2 -22.6 5.4 M-129.6 56.3 L-68.2 67.7 -68.4 78.15 -129.6 65.65 -129.6 56.3 M-23.3 -19.95 L-23.3 -15.4 -30.0 -16.4 -24.15 -22.85 -24.15 -20.8 -23.3 -19.95 M-71.4 15.65 L-77.3 21.95 -77.3 14.75 -71.4 15.65 M-68.05 40.4 L-67.9 49.55 -101.85 43.55 -101.85 35.55 -86.75 37.65 Q-84.3 41.0 -79.5 38.4 L-68.05 40.4 M-23.3 30.4 L-50.95 26.15 -60.0 24.65 -60.3 19.3 -58.65 17.2 -23.05 21.7 -23.3 30.4 M-25.7 56.3 L-60.45 50.55 -60.35 41.85 -25.7 48.85 -25.7 56.3 M-42.75 81.75 L-60.45 79.35 -60.55 69.2 -46.5 72.45 -42.75 71.0 -42.75 81.75 M-88.25 109.5 L-93.25 110.9 -148.6 95.25 -149.05 81.75 -68.55 102.4 -66.5 101.4 -67.45 118.25 -86.55 112.45 -88.25 109.5" fill="#996666" fill-rule="evenodd" stroke="none"/>
    <path d="M-22.8 13.85 L-53.25 9.95 -48.9 5.25 -22.8 8.05 -22.8 13.85 M-24.15 -35.75 L-24.35 -33.6 -27.8 -30.9 -34.85 -32.25 -24.15 -35.75 M-23.25 -12.9 Q-23.0 -10.1 -23.25 -9.25 L-35.25 -10.65 -31.95 -14.25 -23.25 -12.9 M-44.0 -14.65 L-46.5 -11.65 -51.55 -12.7 -44.0 -14.65 M-62.5 6.95 Q-65.0 7.25 -66.1 8.8 -73.4 7.65 -77.95 7.45 L-60.2 4.25 -62.5 6.95 M-72.9 31.95 L-68.55 25.95 -68.4 32.55 -72.9 31.95 M-28.3 39.35 L-60.45 33.25 -60.25 27.0 -23.3 33.0 -23.3 37.6 -28.3 39.35 M-59.2 82.05 L-47.3 83.95 -60.95 89.85 Q-63.8 91.2 -65.55 91.75 L-68.0 91.9 -79.15 89.2 -82.2 88.4 Q-115.35 79.9 -151.85 72.35 L-133.25 68.1 -70.15 80.2 -70.05 84.75 Q-65.85 90.8 -59.95 87.5 -59.0 83.75 -59.2 82.05" fill="url(#gradient9)" fill-rule="evenodd" stroke="none"/>
    <path d="M0.8 4.4 L0.8 4.35 0.9 4.4 0.95 4.4 0.8 4.4" fill="#ffffff" fill-rule="evenodd" stroke="none"/>
    <path d="M159.25 130.9 L159.25 131.4 158.5 131.4 158.5 130.9 159.25 130.9" fill="#cccccc" fill-rule="evenodd" stroke="none"/>
    <path d="M-106.35 28.35 L-86.3 31.95 Q-87.1 32.75 -87.1 35.15 L-106.35 32.2 -106.35 28.35 M-133.2 50.25 L-68.15 62.0 -68.35 64.9 -133.2 53.65 -133.2 50.25 M-30.75 -28.15 L-37.0 -29.45 -37.35 -31.35 -29.0 -29.5 -30.75 -28.15 M-23.0 -7.45 L-22.8 -3.9 -39.5 -5.75 -36.45 -8.9 -23.0 -7.45 M-47.75 -9.8 L-50.55 -7.15 -54.5 -7.8 -54.5 -11.2 -47.75 -9.8 M-56.0 12.7 L-22.95 16.05 -22.9 19.9 -57.05 14.15 -56.0 12.7 M-68.2 10.85 L-69.85 13.1 -80.9 11.65 -80.9 9.75 -68.2 10.85 M-75.25 33.9 L-67.95 35.0 -67.95 37.75 -77.05 35.85 -75.25 33.9 M-23.3 40.45 L-23.3 43.45 -26.6 44.8 -26.6 41.9 -23.3 40.45 M-60.45 36.6 L-29.5 42.15 -29.5 45.2 -60.45 39.05 -60.45 36.6 M-47.95 66.1 L-47.95 69.05 -60.4 66.1 -60.4 63.4 -47.95 66.1 M-26.15 61.85 L-45.15 69.0 -45.15 65.95 -25.9 59.2 -26.15 61.85 M-43.4 87.75 L-65.55 98.8 -65.55 95.2 -43.4 84.6 -43.4 87.75 M-71.35 98.35 L-154.85 78.1 -155.45 74.05 Q-138.35 78.3 -121.0 81.9 L-106.85 84.8 Q-100.4 86.0 -93.35 87.95 L-68.6 94.55 -69.05 99.1 -71.35 98.35" fill="#996633" fill-rule="evenodd" stroke="none"/>
    <path d="M-100.9 27.35 L-79.15 24.05 -84.4 30.25 Q-96.05 27.95 -100.9 27.35 M-68.05 59.5 L-127.4 49.05 -102.85 45.3 Q-82.35 49.1 -68.05 52.35 L-68.05 59.5 M-60.45 52.95 L-31.6 58.95 -46.05 64.65 -60.6 61.05 -60.45 52.95" fill="url(#gradient10)" fill-rule="evenodd" stroke="none"/>
    <path d="M-23.45 63.95 Q-24.6 93.65 -24.3 100.7 L-24.3 100.75 Q-42.45 107.85 -63.35 118.05 L-63.35 100.05 Q-57.75 97.55 -41.05 89.15 L-39.65 70.15 Q-32.6 66.95 -25.35 64.2 L-23.45 63.95" fill="#663300" fill-rule="evenodd" stroke="none"/>
  </g>
  <defs>
    <linearGradient gradientTransform="matrix(0.0141, 0.0, 0.0, 0.0575, -8.35, -86.95)" gradientUnits="userSpaceOnUse" id="gradient0" spreadMethod="pad" x1="-819.2" x2="819.2">
      <stop offset="0.0" stop-color="#54af76"/>
      <stop offset="1.0" stop-color="#030c06"/>
    </linearGradient>
    <linearGradient gradientTransform="matrix(0.0141, 0.0, 0.0, 0.0575, -8.35, -86.95)" gradientUnits="userSpaceOnUse" id="gradient1" spreadMethod="pad" x1="-819.2" x2="819.2">
      <stop offset="0.0" stop-color="#cc9966"/>
      <stop offset="1.0" stop-color="#663300"/>
    </linearGradient>
    <linearGradient gradientTransform="matrix(0.0015, 0.0, 0.0, 0.0016, -9.7, -132.65)" gradientUnits="userSpaceOnUse" id="gradient2" spreadMethod="pad" x1="-819.2" x2="819.2">
      <stop offset="0.0" stop-color="#cc9966"/>
      <stop offset="1.0" stop-color="#663300"/>
    </linearGradient>
    <linearGradient gradientTransform="matrix(0.0, 0.1626, -0.0966, 0.0, 80.15, -1.8)" gradientUnits="userSpaceOnUse" id="gradient3" spreadMethod="pad" x1="-819.2" x2="819.2">
      <stop offset="0.0" stop-color="#78b699"/>
      <stop offset="1.0" stop-color="#293a38"/>
    </linearGradient>
    <linearGradient gradientTransform="matrix(0.0, 0.1626, -0.0966, 0.0, 80.15, -1.8)" gradientUnits="userSpaceOnUse" id="gradient4" spreadMethod="pad" x1="-819.2" x2="819.2">
      <stop offset="0.0" stop-color="#b0d9bf"/>
      <stop offset="1.0" stop-color="#030c06"/>
    </linearGradient>
    <linearGradient gradientTransform="matrix(0.0109, 0.0, 0.0, 0.0121, -13.25, -30.05)" gradientUnits="userSpaceOnUse" id="gradient5" spreadMethod="pad" x1="-819.2" x2="819.2">
      <stop offset="0.0" stop-color="#fdf8d7"/>
      <stop offset="1.0" stop-color="#cea426"/>
    </linearGradient>
    <radialGradient cx="0" cy="0" gradientTransform="matrix(0.0236, 0.0, 0.0, 0.0236, 8.45, -22.35)" gradientUnits="userSpaceOnUse" id="gradient6" r="819.2" spreadMethod="pad">
      <stop offset="0.0" stop-color="#ffcccc"/>
      <stop offset="1.0" stop-color="#ff0000"/>
    </radialGradient>
    <linearGradient gradientTransform="matrix(0.0145, 0.0, 0.0, 0.0236, 22.8, -22.35)" gradientUnits="userSpaceOnUse" id="gradient7" spreadMethod="pad" x1="-819.2" x2="819.2">
      <stop offset="0.0" stop-color="#ffffff"/>
      <stop offset="1.0" stop-color="#000000"/>
    </linearGradient>
    <linearGradient gradientTransform="matrix(0.0137, 0.0, 0.0, 0.0935, -10.25, 57.8)" gradientUnits="userSpaceOnUse" id="gradient8" spreadMethod="pad" x1="-819.2" x2="819.2">
      <stop offset="0.0" stop-color="#54af76"/>
      <stop offset="1.0" stop-color="#030c06"/>
    </linearGradient>
    <linearGradient gradientTransform="matrix(0.0638, 0.0, 0.0, 0.0146, -99.6, 80.05)" gradientUnits="userSpaceOnUse" id="gradient9" spreadMethod="pad" x1="-819.2" x2="819.2">
      <stop offset="0.0" stop-color="#dab58f"/>
      <stop offset="1.0" stop-color="#92642e"/>
    </linearGradient>
    <linearGradient gradientTransform="matrix(0.0362, 0.0, 0.0, 0.0087, -97.75, 52.4)" gradientUnits="userSpaceOnUse" id="gradient10" spreadMethod="pad" x1="-819.2" x2="819.2">
      <stop offset="0.0" stop-color="#dab58f"/>
      <stop offset="1.0" stop-color="#92642e"/>
    </linearGradient>
  </defs>
</svg>
