<?xml version="1.0" encoding="UTF-8" standalone="no"?>
<svg xmlns:ffdec="https://www.free-decompiler.com/flash" xmlns:xlink="http://www.w3.org/1999/xlink" ffdec:objectType="shape" height="385.25px" width="545.0px" xmlns="http://www.w3.org/2000/svg">
  <g transform="matrix(1.0, 0.0, 0.0, 1.0, 272.5, 192.6)">
    <path d="M6.7 -80.7 Q6.25 -82.45 5.15 -83.2 L4.2 -83.0 Q5.1 -82.15 5.4 -79.95 L6.7 -80.7 M1.8 -83.6 L5.05 -84.0 Q6.8 -83.45 7.4 -80.8 L9.7 -80.1 Q9.8 -85.3 9.15 -91.6 L-2.9 -90.55 Q-1.55 -82.3 -1.5 -75.95 -1.45 -70.15 -2.45 -65.1 L9.0 -67.4 9.35 -75.9 7.45 -75.4 Q6.9 -73.2 2.3 -72.15 L1.8 -83.6 M9.1 -78.0 L9.2 -76.85 10.95 -77.3 11.0 -78.35 9.1 -78.0 M7.55 -80.1 L6.3 -79.5 8.8 -78.8 10.55 -79.15 7.55 -80.1 M8.2 -76.85 L8.2 -78.4 4.9 -79.05 Q4.45 -82.25 2.55 -83.05 3.0 -75.7 2.85 -73.25 4.85 -73.75 5.0 -76.25 L8.2 -76.85 M11.65 -76.9 L10.95 -76.45 Q11.15 -73.2 10.35 -66.45 L-4.25 -63.75 Q-2.95 -76.65 -4.25 -92.15 L9.95 -93.3 10.75 -79.65 11.6 -79.3 11.65 -76.9 M102.05 -0.8 L101.9 -0.35 Q27.35 5.5 -10.0 13.75 L-10.0 20.55 Q-18.85 22.7 -23.0 23.25 L-29.75 18.75 Q-34.4 19.7 -36.65 17.9 L-37.35 18.2 -39.75 18.75 Q-43.5 18.75 -46.6 16.55 -54.45 21.0 -64.1 19.35 L-65.25 19.25 -66.65 19.15 Q-71.55 22.8 -76.1 22.35 -80.65 21.85 -81.65 19.55 L-81.8 19.05 Q-85.7 16.15 -89.1 18.6 -93.05 24.4 -102.4 21.85 L-102.7 25.2 -103.0 26.2 -115.05 29.55 -119.45 25.25 -133.2 28.55 Q-146.6 31.55 -159.85 35.3 L-175.2 39.15 -183.4 40.9 -190.1 42.55 -196.85 44.15 -206.65 46.4 -213.95 48.05 -226.5 51.0 -237.65 53.55 -249.5 55.95 -259.05 57.6 -272.5 60.1 -272.5 57.45 -259.6 55.05 Q-209.4 45.25 -120.1 23.5 L-120.15 20.7 -120.9 -21.25 -121.35 -45.1 -121.6 -54.35 -121.7 -57.35 -121.8 -99.35 -121.55 -116.85 -121.15 -131.9 -120.65 -150.65 -109.65 -151.05 Q-81.7 -150.6 -53.75 -150.65 L-33.35 -150.9 -26.35 -151.0 -18.7 -151.5 -16.6 -151.65 -15.2 -151.75 -14.45 -151.9 -11.8 -152.1 -10.75 -152.1 -9.7 -86.8 -10.7 -38.05 -10.3 11.15 2.45 8.65 Q32.55 4.3 55.0 2.0 74.2 -0.05 102.05 -0.8 M-33.05 -174.75 L-48.9 -174.1 -63.95 -173.95 -86.1 -174.2 Q-85.45 -170.45 -88.5 -157.65 L-88.5 -174.4 -88.6 -175.3 -73.2 -176.0 Q-65.45 -175.75 -57.75 -176.25 L-56.4 -176.35 -56.1 -179.25 -56.4 -192.6 -53.7 -176.55 Q-43.3 -177.7 -32.95 -175.7 L-33.05 -174.75 M-139.9 -174.95 Q-140.05 -170.8 -141.55 -157.1 L-142.45 -174.95 -142.5 -176.15 -194.7 -176.85 -194.6 -174.95 -193.9 -155.45 Q-168.8 -156.1 -143.65 -155.45 L-137.45 -155.2 -137.45 -96.65 -171.35 -93.4 -196.1 -91.4 -211.05 -90.0 -233.3 -86.95 -233.35 -88.35 -259.6 -87.3 -272.5 -86.8 -272.5 -88.5 -259.6 -89.2 -251.0 -89.65 Q-251.9 -101.25 -250.55 -114.1 L-248.35 -89.95 -233.1 -91.25 Q-232.95 -116.25 -233.45 -121.35 L-259.6 -122.65 -259.6 -123.3 -233.35 -124.3 -233.35 -149.2 -259.6 -149.2 -268.8 -149.2 Q-267.25 -150.15 -259.6 -150.4 L-253.15 -150.55 -253.15 -174.95 Q-252.15 -166.7 -251.0 -150.7 L-233.15 -150.7 -233.25 -153.25 -195.75 -155.4 -196.6 -174.95 -196.7 -176.85 -227.75 -178.2 -220.95 -179.1 -168.4 -179.45 -168.05 -191.05 -165.8 -179.25 -124.45 -176.75 -139.9 -176.35 -139.9 -174.95 M-259.6 -19.95 L-205.75 -26.45 -181.15 -28.05 -259.6 -17.7 -272.5 -16.0 -272.5 -18.4 -259.6 -19.95 M-187.4 -153.7 L-195.35 -153.5 -195.35 -133.2 -230.85 -132.0 -230.85 -127.75 -196.35 -129.5 -195.4 -103.15 -230.55 -100.8 -230.5 -97.2 -156.8 -101.4 -156.8 -154.1 -160.25 -154.05 -160.25 -134.85 -187.4 -133.7 -187.4 -153.7 M-163.15 -154.1 L-164.65 -154.05 -164.65 -136.25 -162.7 -136.25 Q-162.65 -145.15 -163.15 -154.1 M-198.2 -153.5 L-201.1 -153.35 -201.1 -135.3 -198.2 -135.3 -198.2 -153.5 M-230.85 -125.45 L-230.6 -107.65 -204.1 -108.3 -204.0 -127.1 -230.85 -125.45 M-204.0 -153.15 L-230.85 -151.5 -230.85 -134.3 -204.0 -135.3 -204.0 -153.15 M-166.95 -154.1 L-185.2 -153.8 Q-185.15 -149.75 -185.45 -136.25 L-167.25 -136.05 -166.95 -154.1 M-162.8 -127.45 L-164.75 -127.45 -165.3 -107.6 -185.45 -107.95 -185.45 -106.0 -162.8 -106.0 -162.8 -127.45 M-230.6 -105.6 L-230.6 -102.9 -197.4 -104.95 -198.25 -127.15 -201.15 -127.05 -201.3 -106.5 -230.6 -105.6 M-186.05 -126.95 L-185.5 -110.55 -167.9 -109.8 -167.25 -127.4 -186.05 -126.95 M-187.9 -129.4 L-161.2 -129.7 Q-161.3 -107.8 -160.9 -105.55 L-160.9 -104.25 -187.8 -103.1 -187.9 -129.4 M-225.1 -63.45 L-200.9 -65.95 -200.45 -88.85 -197.45 -66.5 -191.65 -66.8 -185.85 -67.2 -174.35 -67.95 -148.6 -70.45 -148.7 -93.2 -147.9 -93.3 -145.05 -70.5 -144.9 -69.4 -167.7 -66.1 -167.8 -65.05 -167.35 -57.65 Q-166.95 -52.55 -169.15 -38.3 L-170.8 -65.7 -215.95 -63.05 -218.55 -62.75 -225.0 -62.5 -225.1 -63.45 M-230.5 -95.1 L-230.35 -89.4 -142.5 -98.15 Q-148.05 -98.5 -153.5 -100.0 L-230.5 -95.1 M-22.7 -148.7 L-22.7 -148.65 -22.7 -148.6 Q-59.8 -148.15 -113.7 -149.2 L-104.35 -139.35 -63.45 -139.6 -22.05 -141.15 -15.2 -148.75 -17.0 -148.7 -17.05 -148.7 -17.55 -148.7 -19.45 -148.75 -22.7 -148.7 M-66.4 -103.5 L-62.35 -123.8 Q-62.05 -115.9 -65.15 -107.1 L-66.4 -103.5 M-78.4 -104.3 Q-78.9 -97.3 -80.15 -93.75 L-80.3 -121.5 Q-77.95 -111.35 -78.4 -104.3 M-58.7 -101.9 L-59.05 -97.0 -60.55 -121.25 Q-57.8 -113.45 -58.7 -101.9 M-35.7 -44.2 Q-34.35 -17.85 -34.4 7.05 L-34.5 15.7 Q-29.7 17.15 -28.25 13.8 L-28.05 8.65 Q-27.8 -0.6 -28.15 -9.95 L-28.05 -16.75 Q-27.55 -25.3 -27.35 -33.8 -27.15 -42.15 -27.35 -50.5 -27.7 -67.25 -29.45 -84.0 -30.35 -92.4 -30.85 -100.85 -31.55 -112.45 -31.75 -124.1 -39.1 -121.35 -47.4 -126.5 -53.55 -121.8 -63.35 -126.5 -68.5 -122.3 -75.3 -123.7 -78.5 -124.35 -81.05 -125.75 L-83.1 -126.8 Q-87.5 -123.95 -92.45 -125.7 -94.0 -126.25 -95.4 -127.05 -97.9 -126.05 -102.9 -126.4 L-103.35 -123.25 Q-103.85 -113.85 -103.8 -104.4 -103.75 -95.1 -104.25 -85.85 L-101.95 -44.1 Q-101.35 -32.8 -102.25 -18.75 -102.9 -8.9 -103.05 1.05 -103.15 8.0 -102.6 14.95 L-102.3 18.65 Q-96.9 21.75 -91.85 18.8 L-92.25 10.75 -93.05 -3.45 -93.2 -8.95 -92.1 -8.95 Q-91.55 1.95 -90.45 10.1 L-89.55 15.9 Q-85.9 14.6 -82.3 15.9 L-82.45 7.75 Q-82.65 -14.55 -79.3 -34.5 -80.75 -10.0 -80.25 7.25 L-79.75 17.85 Q-74.9 22.3 -69.65 17.6 L-70.25 5.45 Q-70.55 -3.85 -70.45 -13.2 L-69.65 -53.85 Q-69.4 -62.45 -68.75 -69.2 -68.1 -58.25 -68.3 -35.7 -68.5 -17.35 -67.65 5.15 L-67.25 15.55 Q-60.45 17.4 -54.0 16.1 -50.35 15.35 -48.35 13.5 L-48.45 4.95 -48.65 -10.6 Q-48.7 -18.4 -47.5 -26.3 L-45.55 14.7 Q-42.05 17.05 -36.8 15.55 L-36.3 6.7 Q-35.8 -6.2 -36.75 -19.0 L-37.1 -27.75 Q-37.15 -35.45 -35.8 -44.2 L-35.7 -44.2 M-62.8 -128.9 Q-54.4 -123.4 -48.65 -129.05 -54.2 -128.7 -62.8 -128.9 M-12.95 -147.4 L-19.65 -139.1 -20.05 -87.7 -20.35 -76.55 -20.45 -73.45 -20.55 -71.25 -20.65 -69.85 -21.0 -59.85 -21.35 -25.9 -21.25 20.4 -12.25 18.65 -12.4 12.4 -12.45 10.4 -12.75 -6.85 -13.0 -24.0 -12.95 -40.7 -12.65 -66.05 -12.55 -95.85 -12.6 -122.15 -12.95 -147.4 M-22.25 -138.05 L-25.15 -137.85 -25.15 -135.55 Q-23.15 -135.65 -22.3 -132.8 L-22.3 -137.8 -22.25 -138.05 M-28.0 -128.2 L-29.3 -128.2 -28.3 -106.95 -28.0 -128.2 M-25.8 -130.4 Q-24.5 -130.6 -24.4 -132.15 -24.3 -133.7 -25.85 -133.95 L-103.9 -132.8 -104.1 -131.0 -25.8 -130.4 M-22.95 -130.0 Q-23.2 -128.75 -25.4 -128.3 L-25.4 -84.45 -23.45 -41.35 Q-22.75 -63.15 -22.85 -67.85 L-22.95 -74.3 -22.95 -80.1 -22.75 -88.25 Q-22.6 -96.65 -22.85 -105.4 L-22.85 -106.3 Q-22.75 -118.1 -22.95 -130.0 M-31.55 -128.4 L-42.9 -128.85 Q-38.3 -122.6 -31.55 -128.4 M-27.6 -135.75 L-27.6 -137.85 -104.6 -136.75 -104.6 -135.5 -27.6 -135.75 M-139.9 -153.5 L-153.85 -154.1 -153.9 -145.45 -153.55 -131.9 -152.3 -101.95 -139.6 -100.05 -140.2 -122.4 Q-140.45 -135.15 -140.1 -147.85 L-139.9 -153.5 M-84.3 -128.45 Q-87.85 -128.9 -93.9 -128.45 -88.0 -124.25 -84.3 -128.45 M-114.7 -146.55 Q-115.2 -136.75 -115.1 -126.9 L-115.1 -110.9 -115.1 -103.3 -115.1 -95.9 -115.1 -88.75 -115.05 -81.85 -114.95 -75.25 -114.9 -68.75 -114.85 -62.65 -114.45 -45.4 -113.85 -27.4 -113.65 -19.8 -113.45 -13.3 -113.2 -0.3 -113.0 12.75 -113.0 20.35 -113.05 26.55 -104.9 24.1 -107.35 -137.7 -114.7 -146.55 M-118.3 -148.65 L-118.9 -128.5 Q-119.15 -94.75 -119.5 -71.65 -118.8 -31.45 -118.85 -16.65 L-118.9 6.9 -118.5 23.65 -115.15 26.75 -115.1 21.6 Q-115.05 -11.85 -115.9 -62.55 L-116.4 -88.15 Q-117.0 -119.2 -116.6 -147.85 L-118.3 -148.65 M-50.1 -82.25 L-48.8 -117.15 Q-47.5 -109.25 -48.05 -98.95 -48.65 -88.65 -50.1 -82.25 M-44.65 -83.8 L-44.3 -96.7 Q-44.25 -100.0 -44.8 -108.85 -41.45 -90.25 -44.15 -76.5 L-44.45 -78.65 Q-44.75 -81.15 -44.65 -83.8 M-93.8 -49.85 L-94.05 -121.9 Q-89.4 -96.45 -93.8 -49.85 M-98.2 -118.55 L-98.85 -95.0 Q-100.5 -104.8 -98.2 -118.55 M-65.45 -128.85 L-81.45 -128.85 Q-70.85 -122.7 -65.45 -128.85 M-26.2 17.9 L-23.5 20.15 -23.5 -32.4 Q-25.95 -18.25 -26.15 9.15 L-26.2 17.9" fill="#442200" fill-rule="evenodd" stroke="none"/>
    <path d="M6.7 -80.7 L5.4 -79.95 Q5.1 -82.15 4.2 -83.0 L5.15 -83.2 Q6.25 -82.45 6.7 -80.7 M7.55 -80.1 L10.55 -79.15 8.8 -78.8 6.3 -79.5 7.55 -80.1 M9.1 -78.0 L11.0 -78.35 10.95 -77.3 9.2 -76.85 9.1 -78.0" fill="#993366" fill-rule="evenodd" stroke="none"/>
    <path d="M1.8 -83.6 L2.3 -72.15 Q6.9 -73.2 7.45 -75.4 L9.35 -75.9 9.0 -67.4 -2.45 -65.1 Q-1.45 -70.15 -1.5 -75.95 -1.55 -82.3 -2.9 -90.55 L9.15 -91.6 Q9.8 -85.3 9.7 -80.1 L7.4 -80.8 Q6.8 -83.45 5.05 -84.0 L1.8 -83.6 M-25.8 -130.4 L-104.1 -131.0 -103.9 -132.8 -25.85 -133.95 Q-24.3 -133.7 -24.4 -132.15 -24.5 -130.6 -25.8 -130.4" fill="#9999cc" fill-rule="evenodd" stroke="none"/>
    <path d="M8.2 -76.85 L5.0 -76.25 Q4.85 -73.75 2.85 -73.25 3.0 -75.7 2.55 -83.05 4.45 -82.25 4.9 -79.05 L8.2 -78.4 8.2 -76.85" fill="#996666" fill-rule="evenodd" stroke="none"/>
    <path d="M11.65 -76.9 L11.6 -79.3 10.75 -79.65 9.95 -93.3 -4.25 -92.15 Q-2.95 -76.65 -4.25 -63.75 L10.35 -66.45 Q11.15 -73.2 10.95 -76.45 L11.65 -76.9 M111.4 -1.1 L105.8 -0.95 102.05 -0.8 Q74.2 -0.05 55.0 2.0 32.55 4.3 2.45 8.65 L-10.3 11.15 -10.7 -38.05 -9.7 -86.8 -10.75 -152.1 -11.8 -152.1 -14.45 -151.9 -15.2 -151.75 -16.6 -151.65 -18.7 -151.5 -26.35 -151.0 -33.35 -150.9 -53.75 -150.65 Q-81.7 -150.6 -109.65 -151.05 L-120.65 -150.65 -121.15 -131.9 -121.55 -116.85 -121.8 -99.35 -121.7 -57.35 -121.6 -54.35 -121.35 -45.1 -120.9 -21.25 -120.15 20.7 -120.1 23.5 Q-209.4 45.25 -259.6 55.05 L-259.6 -17.7 -181.15 -28.05 -205.75 -26.45 -259.6 -19.95 -259.6 -87.3 -233.35 -88.35 -233.3 -86.95 -211.05 -90.0 -196.1 -91.4 -171.35 -93.4 -137.45 -96.65 -137.45 -155.2 -143.65 -155.45 Q-168.8 -156.1 -193.9 -155.45 L-194.6 -174.95 -142.45 -174.95 -141.55 -157.1 Q-140.05 -170.8 -139.9 -174.95 L-90.85 -174.95 -91.15 -174.9 -91.15 -174.2 -88.5 -174.4 -88.5 -157.65 Q-85.45 -170.45 -86.1 -174.2 L-63.95 -173.95 -48.9 -174.1 -33.05 -174.75 -33.0 -174.95 251.85 -174.95 251.85 -10.1 Q235.15 -12.85 111.4 -1.1 M-196.6 -174.95 L-195.75 -155.4 -233.25 -153.25 -233.15 -150.7 -251.0 -150.7 Q-252.15 -166.7 -253.15 -174.95 L-196.6 -174.95 M-259.6 -149.2 L-233.35 -149.2 -233.35 -124.3 -259.6 -123.3 -259.6 -149.2 M-259.6 -122.65 L-233.45 -121.35 Q-232.95 -116.25 -233.1 -91.25 L-248.35 -89.95 -250.55 -114.1 Q-251.9 -101.25 -251.0 -89.65 L-259.6 -89.2 -259.6 -122.65 M-253.15 -174.95 L-253.15 -150.55 -259.6 -150.4 -259.6 -174.95 -253.15 -174.95 M-148.7 -93.2 L-148.6 -70.45 -174.35 -67.95 -185.85 -67.2 -191.65 -66.8 -197.45 -66.5 -200.45 -88.85 -200.9 -65.95 -225.1 -63.45 -232.65 -62.65 -232.8 -62.1 -232.6 -62.1 -227.1 -62.3 -225.2 -29.4 -225.0 -62.5 -218.55 -62.75 -215.95 -63.05 -170.8 -65.7 -169.15 -38.3 Q-166.95 -52.55 -167.35 -57.65 L-167.8 -65.05 -167.7 -66.1 -144.9 -69.4 -134.35 -70.95 -145.05 -70.5 -147.9 -93.3 -147.9 -93.35 -148.7 -93.2 M-18.45 -148.7 L-18.95 -148.7 -19.7 -148.7 -22.7 -148.7 -19.45 -148.75 -17.55 -148.7 -17.05 -148.7 -18.0 -148.7 -18.45 -148.7" fill="url(#gradient0)" fill-rule="evenodd" stroke="none"/>
    <path d="M102.05 -0.8 L105.8 -0.95 111.4 -1.1 105.7 -0.65 101.9 -0.35 102.05 -0.8 M-33.0 -174.95 L-33.05 -174.75 -32.95 -175.7 -32.9 -175.7 -32.85 -175.7 -33.0 -174.95 M-88.5 -174.4 L-91.15 -174.2 -91.15 -174.9 -90.85 -174.95 -88.6 -175.3 -88.5 -174.4 M-148.7 -93.2 L-147.9 -93.35 -147.9 -93.3 -148.7 -93.2 M-145.05 -70.5 L-134.35 -70.95 -144.9 -69.4 -145.05 -70.5 M-225.0 -62.5 L-225.2 -29.4 -227.1 -62.3 -232.6 -62.1 -232.65 -62.65 -225.1 -63.45 -225.0 -62.5 M-22.7 -148.65 L-22.65 -148.6 -22.7 -148.6 -22.7 -148.65 M-92.1 -8.95 L-93.2 -8.95 Q-93.4 -18.05 -92.75 -27.1 -92.9 -23.1 -92.1 -8.95" fill="#241200" fill-rule="evenodd" stroke="none"/>
    <path d="M-187.4 -153.7 L-187.4 -133.7 -160.25 -134.85 -160.25 -154.05 -156.8 -154.1 -156.8 -101.4 -230.5 -97.2 -230.55 -100.8 -195.4 -103.15 -196.35 -129.5 -230.85 -127.75 -230.85 -132.0 -195.35 -133.2 -195.35 -153.5 -187.4 -153.7 M-187.9 -129.4 L-187.8 -103.1 -160.9 -104.25 -160.9 -105.55 Q-161.3 -107.8 -161.2 -129.7 L-187.9 -129.4" fill="#999999" fill-rule="evenodd" stroke="none"/>
    <path d="M-198.2 -153.5 L-198.2 -135.3 -201.1 -135.3 -201.1 -153.35 -198.2 -153.5 M-163.15 -154.1 Q-162.65 -145.15 -162.7 -136.25 L-164.65 -136.25 -164.65 -154.05 -163.15 -154.1 M-230.6 -105.6 L-201.3 -106.5 -201.15 -127.05 -198.25 -127.15 -197.4 -104.95 -230.6 -102.9 -230.6 -105.6 M-162.8 -127.45 L-162.8 -106.0 -185.45 -106.0 -185.45 -107.95 -165.3 -107.6 -164.75 -127.45 -162.8 -127.45" fill="#666666" fill-rule="evenodd" stroke="none"/>
    <path d="M-166.95 -154.1 L-167.25 -136.05 -185.45 -136.25 Q-185.15 -149.75 -185.2 -153.8 L-166.95 -154.1 M-204.0 -153.15 L-204.0 -135.3 -230.85 -134.3 -230.85 -151.5 -204.0 -153.15 M-230.85 -125.45 L-204.0 -127.1 -204.1 -108.3 -230.6 -107.65 -230.85 -125.45 M-186.05 -126.95 L-167.25 -127.4 -167.9 -109.8 -185.5 -110.55 -186.05 -126.95" fill="url(#gradient1)" fill-rule="evenodd" stroke="none"/>
    <path d="M-259.6 -123.3 L-259.6 -122.65 -267.05 -123.05 -259.6 -123.3 M-232.6 -62.1 L-232.8 -62.1 -232.65 -62.65 -232.6 -62.1 M-22.7 -148.65 L-22.7 -148.7 -19.7 -148.7 -18.95 -148.7 -18.45 -148.7 -19.65 -148.65 -22.65 -148.6 -22.7 -148.65 M-35.7 -44.2 L-35.8 -44.2 -35.8 -45.4 -35.7 -44.2" fill="#000000" fill-rule="evenodd" stroke="none"/>
    <path d="M-230.5 -95.1 L-153.5 -100.0 Q-148.05 -98.5 -142.5 -98.15 L-230.35 -89.4 -230.5 -95.1 M-139.9 -153.5 L-140.1 -147.85 Q-140.45 -135.15 -140.2 -122.4 L-139.6 -100.05 -152.3 -101.95 -153.55 -131.9 -153.9 -145.45 -153.85 -154.1 -139.9 -153.5" fill="#996600" fill-rule="evenodd" stroke="none"/>
    <path d="M-22.65 -148.6 L-19.65 -148.65 -18.45 -148.7 -18.0 -148.7 -17.05 -148.7 -17.0 -148.7 -15.2 -148.75 -22.05 -141.15 -63.45 -139.6 -104.35 -139.35 -113.7 -149.2 Q-59.8 -148.15 -22.7 -148.6 L-22.65 -148.6 M-12.95 -147.4 L-12.6 -122.15 -12.55 -95.85 -12.65 -66.05 -12.95 -40.7 -13.0 -24.0 -12.75 -6.85 -12.45 10.4 -12.4 12.4 -12.25 18.65 -21.25 20.4 -21.35 -25.9 -21.0 -59.85 -20.65 -69.85 -20.55 -71.25 -20.45 -73.45 -20.35 -76.55 -20.05 -87.7 -19.65 -139.1 -12.95 -147.4 M-114.7 -146.55 L-107.35 -137.7 -104.9 24.1 -113.05 26.55 -113.0 20.35 -113.0 12.75 -113.2 -0.3 -113.45 -13.3 -113.65 -19.8 -113.85 -27.4 -114.45 -45.4 -114.85 -62.65 -114.9 -68.75 -114.95 -75.25 -115.05 -81.85 -115.1 -88.75 -115.1 -95.9 -115.1 -103.3 -115.1 -110.9 -115.1 -126.9 Q-115.2 -136.75 -114.7 -146.55" fill="#cc9933" fill-rule="evenodd" stroke="none"/>
    <path d="M-58.7 -101.9 Q-57.8 -113.45 -60.55 -121.25 L-59.05 -97.0 -58.7 -101.9 M-78.4 -104.3 Q-77.95 -111.35 -80.3 -121.5 L-80.15 -93.75 Q-78.9 -97.3 -78.4 -104.3 M-66.4 -103.5 L-65.15 -107.1 Q-62.05 -115.9 -62.35 -123.8 L-66.4 -103.5 M-93.2 -8.95 L-93.05 -3.45 -92.25 10.75 -91.85 18.8 Q-96.9 21.75 -102.3 18.65 L-102.6 14.95 Q-103.15 8.0 -103.05 1.05 -102.9 -8.9 -102.25 -18.75 -101.35 -32.8 -101.95 -44.1 L-104.25 -85.85 Q-103.75 -95.1 -103.8 -104.4 -103.85 -113.85 -103.35 -123.25 L-102.9 -126.4 Q-97.9 -126.05 -95.4 -127.05 -94.0 -126.25 -92.45 -125.7 -87.5 -123.95 -83.1 -126.8 L-81.05 -125.75 Q-78.5 -124.35 -75.3 -123.7 -68.5 -122.3 -63.35 -126.5 -53.55 -121.8 -47.4 -126.5 -39.1 -121.35 -31.75 -124.1 -31.55 -112.45 -30.85 -100.85 -30.35 -92.4 -29.45 -84.0 -27.7 -67.25 -27.35 -50.5 -27.15 -42.15 -27.35 -33.8 -27.55 -25.3 -28.05 -16.75 L-28.15 -9.95 Q-27.8 -0.6 -28.05 8.65 L-28.25 13.8 Q-29.7 17.15 -34.5 15.7 L-34.4 7.05 Q-34.35 -17.85 -35.7 -44.2 L-35.8 -45.4 -35.8 -44.2 Q-37.15 -35.45 -37.1 -27.75 L-36.75 -19.0 Q-35.8 -6.2 -36.3 6.7 L-36.8 15.55 Q-42.05 17.05 -45.55 14.7 L-47.5 -26.3 Q-48.7 -18.4 -48.65 -10.6 L-48.45 4.95 -48.35 13.5 Q-50.35 15.35 -54.0 16.1 -60.45 17.4 -67.25 15.55 L-67.65 5.15 Q-68.5 -17.35 -68.3 -35.7 -68.1 -58.25 -68.75 -69.2 -69.4 -62.45 -69.65 -53.85 L-70.45 -13.2 Q-70.55 -3.85 -70.25 5.45 L-69.65 17.6 Q-74.9 22.3 -79.75 17.85 L-80.25 7.25 Q-80.75 -10.0 -79.3 -34.5 -82.65 -14.55 -82.45 7.75 L-82.3 15.9 Q-85.9 14.6 -89.55 15.9 L-90.45 10.1 Q-91.55 1.95 -92.1 -8.95 -92.9 -23.1 -92.75 -27.1 -93.4 -18.05 -93.2 -8.95 M-44.65 -83.8 Q-44.75 -81.15 -44.45 -78.65 L-44.15 -76.5 Q-41.45 -90.25 -44.8 -108.85 -44.25 -100.0 -44.3 -96.7 L-44.65 -83.8 M-50.1 -82.25 Q-48.65 -88.65 -48.05 -98.95 -47.5 -109.25 -48.8 -117.15 L-50.1 -82.25 M-98.2 -118.55 Q-100.5 -104.8 -98.85 -95.0 L-98.2 -118.55 M-93.8 -49.85 Q-89.4 -96.45 -94.05 -121.9 L-93.8 -49.85" fill="url(#gradient2)" fill-rule="evenodd" stroke="none"/>
    <path d="M-62.8 -128.9 Q-54.2 -128.7 -48.65 -129.05 -54.4 -123.4 -62.8 -128.9 M-28.0 -128.2 L-28.3 -106.95 -29.3 -128.2 -28.0 -128.2 M-27.6 -135.75 L-104.6 -135.5 -104.6 -136.75 -27.6 -137.85 -27.6 -135.75 M-31.55 -128.4 Q-38.3 -122.6 -42.9 -128.85 L-31.55 -128.4 M-84.3 -128.45 Q-88.0 -124.25 -93.9 -128.45 -87.85 -128.9 -84.3 -128.45 M-65.45 -128.85 Q-70.85 -122.7 -81.45 -128.85 L-65.45 -128.85" fill="#990000" fill-rule="evenodd" stroke="none"/>
    <path d="M-22.25 -138.05 L-22.3 -137.8 -22.3 -132.8 Q-23.15 -135.65 -25.15 -135.55 L-25.15 -137.85 -22.25 -138.05 M-22.95 -130.0 Q-22.75 -118.1 -22.85 -106.3 L-22.85 -105.4 Q-22.6 -96.65 -22.75 -88.25 L-22.95 -80.1 -22.95 -74.3 -22.85 -67.85 Q-22.75 -63.15 -23.45 -41.35 L-25.4 -84.45 -25.4 -128.3 Q-23.2 -128.75 -22.95 -130.0 M-118.3 -148.65 L-116.6 -147.85 Q-117.0 -119.2 -116.4 -88.15 L-115.9 -62.55 Q-115.05 -11.85 -115.1 21.6 L-115.15 26.75 -118.5 23.65 -118.9 6.9 -118.85 -16.65 Q-118.8 -31.45 -119.5 -71.65 -119.15 -94.75 -118.9 -128.5 L-118.3 -148.65 M-26.2 17.9 L-26.15 9.15 Q-25.95 -18.25 -23.5 -32.4 L-23.5 20.15 -26.2 17.9" fill="#663333" fill-rule="evenodd" stroke="none"/>
    <path d="M101.9 -0.35 L105.7 -0.65 111.4 -1.1 Q235.15 -12.85 251.85 -10.1 L272.5 192.65 -259.05 192.65 -259.05 57.6 -249.5 55.95 -237.65 53.55 -226.5 51.0 -213.95 48.05 -206.65 46.4 -196.85 44.15 -190.1 42.55 -183.4 40.9 -175.2 39.15 -159.85 35.3 Q-146.6 31.55 -133.2 28.55 L-119.45 25.25 -115.05 29.55 -103.0 26.2 -102.7 25.2 -102.4 21.85 Q-93.05 24.4 -89.1 18.6 -85.7 16.15 -81.8 19.05 L-81.65 19.55 Q-80.65 21.85 -76.1 22.35 -71.55 22.8 -66.65 19.15 L-65.25 19.25 -64.1 19.35 Q-54.45 21.0 -46.6 16.55 -43.5 18.75 -39.75 18.75 L-37.35 18.2 -36.65 17.9 Q-34.4 19.7 -29.75 18.75 L-23.0 23.25 Q-18.85 22.7 -10.0 20.55 L-10.0 13.75 Q27.35 5.5 101.9 -0.35" fill="url(#gradient3)" fill-rule="evenodd" stroke="none"/>
  </g>
  <defs>
    <radialGradient cx="0" cy="0" gradientTransform="matrix(0.3361, 0.0, 0.0, 0.3361, -4.3, -57.3)" gradientUnits="userSpaceOnUse" id="gradient0" r="819.2" spreadMethod="pad">
      <stop offset="0.0" stop-color="#d5c8bf"/>
      <stop offset="1.0" stop-color="#856445"/>
    </radialGradient>
    <radialGradient cx="0" cy="0" gradientTransform="matrix(0.0552, 0.0, 0.0, 0.0552, -213.75, -152.45)" gradientUnits="userSpaceOnUse" id="gradient1" r="819.2" spreadMethod="pad">
      <stop offset="0.0" stop-color="#b6ded9"/>
      <stop offset="1.0" stop-color="#487882"/>
    </radialGradient>
    <linearGradient gradientTransform="matrix(0.0266, 0.0992, -0.0868, 0.0233, -34.45, -45.75)" gradientUnits="userSpaceOnUse" id="gradient2" spreadMethod="pad" x1="-819.2" x2="819.2">
      <stop offset="0.0" stop-color="#afefe7"/>
      <stop offset="1.0" stop-color="#2d2d73"/>
    </linearGradient>
    <linearGradient gradientTransform="matrix(-0.016, -0.1184, 0.1229, -0.0166, -23.3, 87.0)" gradientUnits="userSpaceOnUse" id="gradient3" spreadMethod="pad" x1="-819.2" x2="819.2">
      <stop offset="0.0" stop-color="#619eb8"/>
      <stop offset="1.0" stop-color="#272e43"/>
    </linearGradient>
  </defs>
</svg>
